<svg width="217" height="51" viewBox="0 0 217 51" fill="none" xmlns="http://www.w3.org/2000/svg">
<path d="M42.1437 18.553C42.1437 18.9802 42.0724 19.4943 41.9298 20.0956C41.803 20.6968 41.6128 21.3217 41.3593 21.9704C41.1057 22.619 40.7967 23.2677 40.4322 23.9164C40.0836 24.5492 39.6795 25.1267 39.2199 25.6488C38.7604 26.1551 38.2612 26.5664 37.7224 26.8829C37.1836 27.1993 36.6052 27.3575 35.9872 27.3575C35.8446 27.3575 35.6544 27.3496 35.4167 27.3338C35.1948 27.3021 34.9651 27.2468 34.7273 27.1677C34.5055 27.0727 34.3074 26.9382 34.1331 26.7642C33.9746 26.5902 33.8954 26.3608 33.8954 26.076C33.8954 25.8861 33.9429 25.6646 34.038 25.4115C34.1489 25.1584 34.3391 24.8657 34.6085 24.5334C34.8937 24.217 35.2028 23.8452 35.5355 23.418C35.8683 22.975 36.1694 22.5162 36.4388 22.0416C36.7082 21.5669 36.9301 21.1002 37.1044 20.6414C37.2945 20.1826 37.3896 19.7712 37.3896 19.4073C37.3896 18.9485 37.2787 18.5846 37.0568 18.3157C36.8508 18.0309 36.4864 17.8885 35.9634 17.8885C35.282 17.8885 34.5134 18.11 33.6577 18.553C32.802 18.996 31.9066 19.6051 30.9716 20.3803C30.0367 21.1556 29.0859 22.0653 28.1192 23.1095C27.1525 24.1379 26.2176 25.2454 25.3143 26.432C24.411 27.6027 23.5553 28.8289 22.7471 30.1104C21.9547 31.3761 21.2575 32.6339 20.6553 33.8838C20.069 35.1178 19.6015 36.3123 19.2528 37.4673C18.9201 38.6064 18.7537 39.6427 18.7537 40.5762C18.7537 41.7311 19.0627 42.6566 19.6807 43.3528C20.2987 44.0489 21.3209 44.397 22.7471 44.397C23.4127 44.397 24.4031 44.1438 25.7184 43.6376C27.0337 43.1155 28.1271 42.6013 28.9987 42.095C29.8861 41.5729 30.7735 41.0033 31.661 40.3863C32.5642 39.7535 33.42 39.1522 34.2282 38.5827C35.0364 37.9973 35.7732 37.4752 36.4388 37.0164C37.1044 36.5417 37.6511 36.2095 38.079 36.0196C38.1582 35.9564 38.2533 35.9247 38.3642 35.9247C38.6019 35.9247 38.7604 36.1225 38.8396 36.518C38.9347 36.8977 38.9822 37.3328 38.9822 37.8233C38.9822 38.0922 38.9426 38.4245 38.8634 38.82C38.8 39.1997 38.5781 39.6427 38.1978 40.149C38.0235 40.3547 37.6986 40.7027 37.2232 41.1932C36.7478 41.6836 36.1536 42.2374 35.4405 42.8544C34.7273 43.4714 33.9112 44.1122 32.9921 44.7767C32.073 45.4412 31.0746 46.0503 29.997 46.604C28.9353 47.1578 27.5566 47.7036 25.861 48.2415C24.1812 48.7795 22.7154 49.0484 21.4635 49.0484C19.9897 49.0484 18.7299 48.8744 17.684 48.5263C16.6381 48.1624 15.7824 47.6641 15.1168 47.0312C14.4512 46.3984 13.96 45.6469 13.643 44.7767C13.342 43.8907 13.1914 42.9256 13.1914 41.8814C13.1914 40.5841 13.3895 39.1918 13.7857 37.7046C14.1818 36.2174 14.7286 34.7065 15.4258 33.1718C16.1389 31.6372 16.9788 30.1025 17.9455 28.5678C18.928 27.0332 19.9977 25.5697 21.1545 24.1774C22.3271 22.7693 23.5711 21.4641 24.8864 20.2617C26.2017 19.0593 27.5487 18.0151 28.9274 17.1291C30.3061 16.2431 31.6927 15.5469 33.0872 15.0407C34.4817 14.5344 35.8525 14.2812 37.1995 14.2812C37.865 14.2812 38.4989 14.3604 39.1011 14.5186C39.7033 14.661 40.2262 14.8983 40.6699 15.2305C41.1295 15.5628 41.4861 16.0058 41.7396 16.5595C42.009 17.0974 42.1437 17.7619 42.1437 18.553Z" fill="#C4C6C7"/>
<path d="M46.1466 34.5245C46.0674 34.5087 45.9961 34.5008 45.9327 34.5008C45.8693 34.5008 45.798 34.5008 45.7188 34.5008C45.1166 34.5008 44.554 34.6195 44.0311 34.8568C43.5081 35.0941 43.0248 35.4105 42.5811 35.8061C42.1532 36.1858 41.765 36.6208 41.4163 37.1113C41.0835 37.6018 40.7825 38.0922 40.5131 38.5827C40.2437 39.0573 40.0139 39.5161 39.8237 39.9591C39.6494 40.4021 39.5147 40.7739 39.4196 41.0745C39.9743 40.7897 40.5447 40.4654 41.1311 40.1015C41.7333 39.7376 42.2958 39.3896 42.8188 39.0573C43.3417 38.7251 43.7934 38.4245 44.1737 38.1555C44.5699 37.8865 44.8472 37.7046 45.0056 37.6097C45.7188 37.1667 46.21 36.7553 46.4794 36.3756C46.7488 35.9801 46.8835 35.6399 46.8835 35.3551C46.8835 35.1178 46.8043 34.928 46.6458 34.7856C46.5032 34.6432 46.3368 34.5562 46.1466 34.5245ZM47.0024 31.2495C48.3177 31.2495 49.3002 31.566 49.9499 32.1988C50.5996 32.8317 50.9245 33.7097 50.9245 34.833C50.9245 35.4975 50.7502 36.1937 50.4015 36.9214C50.0529 37.6492 49.4507 38.3928 48.595 39.1522C47.7392 39.8958 46.5903 40.6632 45.1483 41.4542C43.722 42.2295 41.9314 43.0126 39.7762 43.8037C39.8554 44.2625 40.101 44.6264 40.5131 44.8954C40.9251 45.1485 41.4718 45.2751 42.1532 45.2751C42.8822 45.2751 43.6587 45.1722 44.4827 44.9666C45.3226 44.7451 46.1466 44.4682 46.9548 44.1359C47.7789 43.8037 48.5791 43.4477 49.3556 43.068C50.1321 42.6725 50.8294 42.3007 51.4474 41.9526C52.0813 41.6045 52.6042 41.3039 53.0163 41.0508C53.4441 40.7977 53.7294 40.6394 53.872 40.5762C54.0146 40.4812 54.1414 40.4259 54.2523 40.41C54.3791 40.3942 54.49 40.3863 54.5851 40.3863C54.7753 40.3863 54.9337 40.4338 55.0605 40.5287C55.1873 40.6078 55.2903 40.7106 55.3695 40.8372C55.4646 40.948 55.528 41.0745 55.5597 41.2169C55.5914 41.3435 55.6072 41.4542 55.6072 41.5492C55.6072 41.6916 55.5914 41.8656 55.5597 42.0713C55.528 42.2611 55.4091 42.4826 55.2031 42.7358C55.1239 42.8149 54.8545 43.0284 54.3949 43.3765C53.9512 43.7246 53.3728 44.1359 52.6597 44.6106C51.9466 45.0852 51.1146 45.5915 50.1638 46.1294C49.2288 46.6515 48.2305 47.1341 47.1688 47.5771C46.1229 48.0201 45.0294 48.3839 43.8884 48.6687C42.7475 48.9693 41.6223 49.1196 40.5131 49.1196C39.5622 49.1196 38.7144 48.9377 37.9696 48.5738C37.2407 48.2099 36.6147 47.7194 36.0918 47.1024C35.5847 46.4854 35.1964 45.7734 34.927 44.9666C34.6576 44.1597 34.5229 43.3132 34.5229 42.4272C34.5229 41.7469 34.6576 41.0033 34.927 40.1964C35.1964 39.3737 35.5847 38.551 36.0918 37.7283C36.5989 36.9056 37.2169 36.1067 37.9459 35.3314C38.6907 34.5404 39.5226 33.8442 40.4417 33.243C41.3609 32.6418 42.3671 32.1593 43.4606 31.7954C44.5699 31.4315 45.7505 31.2495 47.0024 31.2495Z" fill="#C4C6C7"/>
<path d="M56.4487 41.6678C56.2744 42.0317 56.1001 42.4589 55.9258 42.9493C55.7673 43.424 55.688 43.8512 55.688 44.2309C55.688 44.4682 55.7356 44.658 55.8307 44.8004C55.9258 44.9428 56.108 45.014 56.3774 45.014C56.7102 45.014 57.1222 44.9191 57.6134 44.7292C58.1205 44.5236 58.6593 44.2625 59.2298 43.9461C59.8162 43.6138 60.4183 43.242 61.0364 42.8307C61.6703 42.4035 62.2962 41.9684 62.9142 41.5254C63.5323 41.0666 64.1186 40.6157 64.6732 40.1727C65.2437 39.7139 65.7508 39.2946 66.1945 38.9149C66.3213 38.8042 66.4719 38.7251 66.6462 38.6776C66.8205 38.6301 66.971 38.6064 67.0978 38.6064C67.4148 38.6064 67.6762 38.7172 67.8822 38.9387C68.0883 39.1602 68.1913 39.4528 68.1913 39.8167C68.1913 40.149 68.0803 40.5208 67.8585 40.9321C67.6366 41.3435 67.2484 41.7469 66.6937 42.1425C65.6795 43.0759 64.6574 43.9619 63.6273 44.8004C62.5973 45.639 61.5673 46.3826 60.5372 47.0312C59.523 47.6641 58.5088 48.1704 57.4946 48.5501C56.4962 48.9298 55.5217 49.1196 54.5708 49.1196C53.9211 49.1196 53.3744 49.0326 52.9307 48.8586C52.5028 48.6845 52.1542 48.4472 51.8848 48.1466C51.6312 47.846 51.449 47.49 51.3381 47.0787C51.2271 46.6673 51.1717 46.2322 51.1717 45.7734C51.1717 44.9982 51.2826 44.2071 51.5045 43.4002C51.7422 42.5775 52.0195 41.826 52.3364 41.1457C52.8911 39.9117 53.4536 38.6855 54.0241 37.4673C54.5946 36.249 55.1176 35.1336 55.593 34.1211L62.7954 18.814C63.0806 18.197 63.461 17.7619 63.9364 17.5088C64.4276 17.2556 64.9189 17.1291 65.4101 17.1291C65.9014 17.1291 66.3451 17.2636 66.7413 17.5325C67.1533 17.8015 67.3593 18.2366 67.3593 18.8378C67.3593 19.1226 67.288 19.4232 67.1454 19.7396C67.0186 20.056 66.8522 20.3962 66.6462 20.76C66.25 21.5036 65.7746 22.4134 65.22 23.4892C64.6812 24.5651 64.0948 25.7358 63.461 27.0015C62.8429 28.2672 62.2011 29.5883 61.5356 30.9648C60.8858 32.3254 60.244 33.6544 59.6102 34.9517C58.9921 36.249 58.4058 37.4831 57.8512 38.6539C57.3124 39.8088 56.8449 40.8135 56.4487 41.6678Z" fill="#C4C6C7"/>
<path d="M74.2147 34.5245C74.1354 34.5087 74.0641 34.5008 74.0007 34.5008C73.9373 34.5008 73.866 34.5008 73.7868 34.5008C73.1846 34.5008 72.6221 34.6195 72.0991 34.8568C71.5762 35.0941 71.0928 35.4105 70.6491 35.8061C70.2212 36.1858 69.833 36.6208 69.4844 37.1113C69.1516 37.6018 68.8505 38.0922 68.5811 38.5827C68.3117 39.0573 68.0819 39.5161 67.8918 39.9591C67.7174 40.4021 67.5827 40.7739 67.4877 41.0745C68.0423 40.7897 68.6128 40.4654 69.1991 40.1015C69.8013 39.7376 70.3639 39.3896 70.8868 39.0573C71.4098 38.7251 71.8614 38.4245 72.2417 38.1555C72.6379 37.8865 72.9152 37.7046 73.0737 37.6097C73.7868 37.1667 74.2781 36.7553 74.5475 36.3756C74.8168 35.9801 74.9515 35.6399 74.9515 35.3551C74.9515 35.1178 74.8723 34.928 74.7138 34.7856C74.5712 34.6432 74.4048 34.5562 74.2147 34.5245ZM75.0704 31.2495C76.3857 31.2495 77.3682 31.566 78.0179 32.1988C78.6676 32.8317 78.9925 33.7097 78.9925 34.833C78.9925 35.4975 78.8182 36.1937 78.4696 36.9214C78.1209 37.6492 77.5187 38.3928 76.663 39.1522C75.8073 39.8958 74.6584 40.6632 73.2163 41.4542C71.7901 42.2295 69.9994 43.0126 67.8442 43.8037C67.9234 44.2625 68.1691 44.6264 68.5811 44.8954C68.9931 45.1485 69.5398 45.2751 70.2212 45.2751C70.9502 45.2751 71.7267 45.1722 72.5507 44.9666C73.3906 44.7451 74.2147 44.4682 75.0229 44.1359C75.8469 43.8037 76.6472 43.4477 77.4237 43.068C78.2002 42.6725 78.8974 42.3007 79.5155 41.9526C80.1493 41.6045 80.6723 41.3039 81.0843 41.0508C81.5122 40.7977 81.7974 40.6394 81.94 40.5762C82.0827 40.4812 82.2094 40.4259 82.3204 40.41C82.4471 40.3942 82.5581 40.3863 82.6531 40.3863C82.8433 40.3863 83.0018 40.4338 83.1285 40.5287C83.2553 40.6078 83.3583 40.7106 83.4376 40.8372C83.5326 40.948 83.596 41.0745 83.6277 41.2169C83.6594 41.3435 83.6753 41.4542 83.6753 41.5492C83.6753 41.6916 83.6594 41.8656 83.6277 42.0713C83.596 42.2611 83.4772 42.4826 83.2712 42.7358C83.1919 42.8149 82.9225 43.0284 82.463 43.3765C82.0193 43.7246 81.4409 44.1359 80.7277 44.6106C80.0146 45.0852 79.1827 45.5915 78.2319 46.1294C77.2969 46.6515 76.2985 47.1341 75.2368 47.5771C74.1909 48.0201 73.0975 48.3839 71.9565 48.6687C70.8155 48.9693 69.6904 49.1196 68.5811 49.1196C67.6303 49.1196 66.7825 48.9377 66.0377 48.5738C65.3087 48.2099 64.6828 47.7194 64.1598 47.1024C63.6527 46.4854 63.2645 45.7734 62.9951 44.9666C62.7257 44.1597 62.591 43.3132 62.591 42.4272C62.591 41.7469 62.7257 41.0033 62.9951 40.1964C63.2645 39.3737 63.6527 38.551 64.1598 37.7283C64.6669 36.9056 65.2849 36.1067 66.0139 35.3314C66.7587 34.5404 67.5907 33.8442 68.5098 33.243C69.4289 32.6418 70.4352 32.1593 71.5286 31.7954C72.6379 31.4315 73.8185 31.2495 75.0704 31.2495Z" fill="#C4C6C7"/>
<path d="M92.456 35.2128C91.5528 35.2128 90.6495 35.4343 89.7462 35.8772C88.8429 36.3044 88.0268 36.874 87.2979 37.5859C86.5848 38.2979 85.9984 39.1048 85.5389 40.0066C85.0793 40.8926 84.8495 41.7944 84.8495 42.712C84.8495 42.9652 84.8733 43.2262 84.9208 43.4952C84.9684 43.7483 85.0635 43.9856 85.2061 44.2071C85.3646 44.4286 85.5864 44.6106 85.8717 44.753C86.1569 44.8954 86.5372 44.9666 87.0126 44.9666C87.9318 44.9666 88.8192 44.753 89.6749 44.3258C90.5465 43.8828 91.323 43.3053 92.0044 42.5934C92.6858 41.8814 93.2325 41.0824 93.6446 40.1964C94.0566 39.2946 94.2626 38.3928 94.2626 37.491C94.2626 37.2537 94.2388 37.0006 94.1913 36.7316C94.1596 36.4626 94.0804 36.2174 93.9536 35.9959C93.8268 35.7744 93.6446 35.5925 93.4069 35.4501C93.1692 35.2919 92.8522 35.2128 92.456 35.2128ZM94.4528 44.7767C93.1058 46.3905 91.6716 47.5771 90.1503 48.3365C88.6449 49.0801 87.0126 49.4519 85.2536 49.4519C84.287 49.4519 83.4708 49.3095 82.8053 49.0247C82.1397 48.7557 81.6009 48.3839 81.1889 47.9093C80.7769 47.4347 80.4758 46.8809 80.2856 46.2481C80.1113 45.6152 80.0241 44.9428 80.0241 44.2309C80.0241 43.424 80.1272 42.5934 80.3332 41.739C80.5392 40.8688 80.8086 40.0303 81.1414 39.2234C81.3632 38.7013 81.5454 38.2663 81.6881 37.9182C81.8307 37.5701 81.9495 37.2774 82.0446 37.0401C82.1397 36.787 82.2189 36.5734 82.2823 36.3993C82.3616 36.2095 82.4408 36.0196 82.52 35.8298C82.5993 35.6241 82.6944 35.3947 82.8053 35.1416C82.9162 34.8726 83.0668 34.5324 83.2569 34.1211L90.1979 18.7191C90.2929 18.5134 90.4276 18.3157 90.602 18.1258C90.7921 17.936 91.0061 17.7698 91.2438 17.6274C91.4815 17.4692 91.735 17.3506 92.0044 17.2715C92.2897 17.1765 92.5749 17.1291 92.8601 17.1291C93.5891 17.1291 94.0962 17.2715 94.3814 17.5562C94.6825 17.841 94.8331 18.1891 94.8331 18.6004C94.8331 18.9169 94.7538 19.2649 94.5954 19.6447C94.4369 20.0085 94.2626 20.3487 94.0724 20.6651C92.8998 22.9117 91.7905 25.1979 90.7446 27.5236C89.6987 29.8335 88.5894 32.1197 87.4167 34.3821C87.9238 33.9866 88.4626 33.6069 89.0331 33.243C89.6036 32.8633 90.1979 32.5311 90.8159 32.2463C91.4339 31.9457 92.0757 31.7083 92.7413 31.5343C93.4069 31.3445 94.0883 31.2495 94.7855 31.2495C95.2768 31.2495 95.776 31.3445 96.2831 31.5343C96.7902 31.7242 97.2497 32.001 97.6618 32.3649C98.0896 32.7288 98.4303 33.1797 98.6839 33.7176C98.9533 34.2397 99.088 34.8489 99.088 35.545C99.088 35.7032 99.0404 36.0196 98.9454 36.4943C98.8503 36.9689 98.7076 37.5068 98.5175 38.108C98.3432 38.6934 98.1213 39.3025 97.8519 39.9354C97.5984 40.5524 97.3131 41.0983 96.9962 41.5729C97.1071 41.7469 97.2497 41.8577 97.424 41.9051C97.5984 41.9368 97.7965 41.9526 98.0183 41.9526C98.7473 41.9526 99.4683 41.8577 100.181 41.6678C100.91 41.478 101.592 41.2486 102.226 40.9796C102.875 40.6948 103.47 40.4021 104.008 40.1015C104.547 39.8009 104.999 39.5399 105.363 39.3184C105.554 39.1127 105.76 39.0099 105.981 39.0099C106.251 39.0099 106.481 39.1285 106.671 39.3658C106.877 39.6031 106.98 39.9117 106.98 40.2914C106.98 40.6553 106.9 41.0192 106.742 41.383C106.599 41.7311 106.33 42.1187 105.934 42.5459C105.221 42.9731 104.5 43.3765 103.771 43.7562C103.058 44.1359 102.329 44.4682 101.584 44.753C100.839 45.0219 100.078 45.2434 99.3019 45.4175C98.5413 45.5757 97.7648 45.6548 96.9724 45.6548C96.4653 45.6548 95.9978 45.5836 95.57 45.4412C95.1421 45.2988 94.7697 45.0773 94.4528 44.7767Z" fill="#C4C6C7"/>
<path d="M139.964 38.8342C139.886 38.8342 139.815 38.842 139.752 38.8578C139.705 38.8578 139.65 38.8578 139.587 38.8578C138.817 40.5924 138.134 42.1142 137.537 43.423C136.955 44.7319 136.508 45.6781 136.193 46.2615C135.926 46.7504 135.62 47.1762 135.274 47.5389C134.944 47.9015 134.591 48.2012 134.214 48.4377C133.837 48.69 133.452 48.8714 133.059 48.9817C132.682 49.1079 132.328 49.171 131.998 49.171C131.511 49.171 131.103 49.0527 130.773 48.8162C130.443 48.5796 130.278 48.2248 130.278 47.7517C130.278 47.3417 130.403 46.8608 130.655 46.3088L134.049 39.0944C132.336 39.1574 130.686 39.2126 129.099 39.2599C127.528 39.3072 126.012 39.3467 124.551 39.3782C123.812 40.8921 123.019 42.3192 122.17 43.6596C121.322 44.9842 120.426 46.1433 119.483 47.1367C118.541 48.1302 117.559 48.9108 116.537 49.4785C115.516 50.062 114.455 50.3537 113.355 50.3537C112.507 50.3537 111.721 50.1329 110.999 49.6914C110.779 49.5968 110.535 49.4154 110.268 49.1473C110.017 48.895 109.781 48.5875 109.561 48.2248C109.341 47.8621 109.152 47.4679 108.995 47.0421C108.854 46.6163 108.783 46.1827 108.783 45.7411C108.783 45.4258 108.838 45.1261 108.948 44.8423C109.058 44.5427 109.215 44.2588 109.42 43.9907C109.514 43.8804 109.624 43.7384 109.75 43.565C109.875 43.3915 110.024 43.2259 110.197 43.0682C110.37 42.8948 110.551 42.7528 110.739 42.6425C110.944 42.5321 111.164 42.4769 111.399 42.4769C111.494 42.4769 111.588 42.4927 111.682 42.5242C111.776 42.54 111.863 42.5794 111.941 42.6425C112.099 42.7371 112.248 42.95 112.389 43.2811C112.546 43.6123 112.711 43.9592 112.884 44.3219C113.073 44.6688 113.277 44.9842 113.497 45.2681C113.717 45.5519 113.976 45.6938 114.275 45.6938C114.699 45.6938 115.123 45.5361 115.547 45.2208C115.987 44.8896 116.427 44.4402 116.867 43.8725C117.323 43.289 117.779 42.5952 118.234 41.7909C118.69 40.9867 119.146 40.1115 119.601 39.1653C119.098 39.0076 118.745 38.7869 118.541 38.503C118.336 38.2034 118.234 37.8959 118.234 37.5805C118.234 37.3913 118.305 37.202 118.446 37.0128C118.588 36.8236 118.784 36.658 119.036 36.5161C119.287 36.3584 119.578 36.2243 119.908 36.1139C120.253 36.0036 120.63 35.9405 121.039 35.9247C121.604 34.537 122.147 33.0941 122.665 31.596C123.184 30.0979 123.679 28.6314 124.15 27.1964C124.621 25.7614 125.053 24.3894 125.446 23.0806C125.839 21.7559 126.185 20.5732 126.483 19.5325C126.782 18.4917 127.025 17.6322 127.214 16.9542C127.402 16.2761 127.52 15.8503 127.567 15.6768C127.693 15.188 127.929 14.8332 128.274 14.6124C128.636 14.3916 129.021 14.2812 129.429 14.2812C130.042 14.2812 130.506 14.4863 130.82 14.8963C131.15 15.2905 131.315 16.0159 131.315 17.0724C131.315 17.1986 131.315 17.3326 131.315 17.4745C131.315 17.6007 131.307 17.7426 131.291 17.9003C131.26 18.3103 131.181 18.8701 131.055 19.5798C130.93 20.2736 130.765 21.0778 130.561 21.9925C130.356 22.9071 130.105 23.9163 129.806 25.0202C129.508 26.1083 129.17 27.2516 128.793 28.45C128.432 29.6327 128.023 30.8549 127.567 32.1164C127.127 33.378 126.648 34.6316 126.13 35.8774C126.617 35.8774 127.151 35.8774 127.732 35.8774C128.314 35.8774 128.966 35.8853 129.688 35.9011C130.427 35.9011 131.26 35.9168 132.187 35.9484C133.114 35.9641 134.174 35.9878 135.369 36.0193C135.384 36.0193 135.4 36.0272 135.416 36.043C135.431 36.043 135.447 36.043 135.463 36.043C136.845 33.1256 138.157 30.3818 139.399 27.8114C140.64 25.2252 141.779 22.9702 142.816 21.0463C143.853 19.1067 144.772 17.577 145.574 16.4574C146.375 15.3378 147.035 14.778 147.553 14.778C148.103 14.778 148.512 14.912 148.779 15.1801C149.062 15.4324 149.203 15.7793 149.203 16.2209C149.203 16.4574 149.172 16.6703 149.109 16.8595C149.062 17.033 148.991 17.2301 148.897 17.4509C148.488 18.4444 147.97 19.6665 147.341 21.1173C146.713 22.5681 146.029 24.1371 145.291 25.8244C144.552 27.496 143.782 29.2385 142.981 31.052C142.196 32.8497 141.433 34.5922 140.695 36.2795C141.166 36.3741 141.551 36.5082 141.85 36.6816C142.164 36.8393 142.321 37.0522 142.321 37.3203C142.321 37.6672 142.141 37.9984 141.779 38.3138C141.418 38.6134 140.813 38.7869 139.964 38.8342Z" fill="#C4C6C7"/>
<path d="M152.442 35.3807C151.703 35.3807 150.988 35.5699 150.297 35.9484C149.621 36.3111 149.016 36.7999 148.482 37.4149C147.964 38.0142 147.547 38.7001 147.233 39.4728C146.919 40.2297 146.762 41.0103 146.762 41.8146C146.762 42.1142 146.785 42.4453 146.832 42.808C146.879 43.155 146.974 43.4861 147.115 43.8015C147.272 44.1011 147.492 44.3534 147.775 44.5584C148.058 44.7634 148.435 44.8659 148.906 44.8659C149.629 44.8659 150.328 44.6767 151.004 44.2982C151.695 43.904 152.308 43.3994 152.842 42.7844C153.376 42.1536 153.801 41.444 154.115 40.6555C154.429 39.8671 154.586 39.0707 154.586 38.2665C154.586 37.9511 154.563 37.6278 154.516 37.2966C154.484 36.9497 154.39 36.6343 154.233 36.3505C154.091 36.0666 153.879 35.838 153.596 35.6645C153.314 35.4753 152.929 35.3807 152.442 35.3807ZM153.667 31.2176C154.264 31.2176 154.901 31.2964 155.576 31.4541C156.268 31.6118 156.904 31.8799 157.485 32.2583C158.067 32.6368 158.546 33.1414 158.923 33.7722C159.316 34.3872 159.512 35.152 159.512 36.0666C159.512 36.5397 159.449 37.0838 159.324 37.6988C159.198 38.298 159.009 38.9288 158.758 39.5911C158.915 39.7803 159.096 39.9144 159.3 39.9932C159.504 40.0721 159.724 40.1115 159.96 40.1115C160.29 40.1115 160.651 40.0169 161.044 39.8276C161.453 39.6384 161.869 39.394 162.293 39.0944C162.717 38.7947 163.142 38.4557 163.566 38.0772C163.99 37.6988 164.391 37.3203 164.768 36.9418C165.145 36.5634 165.483 36.2086 165.781 35.8774C166.096 35.5305 166.355 35.2387 166.559 35.0022C166.669 34.8918 166.803 34.8366 166.96 34.8366C167.18 34.8366 167.376 34.9549 167.549 35.1914C167.722 35.4122 167.808 35.7276 167.808 36.1376C167.808 36.5476 167.683 37.0207 167.431 37.5568C167.195 38.093 166.748 38.6528 166.088 39.2363C165.711 39.6463 165.279 40.1194 164.791 40.6555C164.304 41.1917 163.786 41.6963 163.236 42.1694C162.686 42.6425 162.113 43.0446 161.515 43.3757C160.918 43.7069 160.321 43.8725 159.724 43.8725C159.316 43.8725 158.915 43.8094 158.522 43.6832C158.145 43.5571 157.76 43.3521 157.367 43.0682C156.802 43.9513 156.158 44.7556 155.435 45.4809C154.712 46.2063 153.903 46.8292 153.007 47.3496C152.127 47.87 151.169 48.2721 150.132 48.556C149.111 48.8556 148.019 49.0054 146.856 49.0054C146.416 49.0054 145.905 48.9187 145.324 48.7452C144.743 48.5717 144.185 48.2879 143.651 47.8937C143.132 47.4837 142.692 46.9554 142.331 46.3088C141.969 45.6623 141.789 44.8738 141.789 43.9434C141.789 43.3127 141.891 42.5557 142.095 41.6726C142.299 40.7896 142.606 39.8828 143.014 38.9524C143.438 38.0063 143.965 37.0759 144.593 36.1613C145.237 35.2309 146 34.403 146.879 33.6776C147.759 32.9364 148.765 32.3451 149.896 31.9035C151.027 31.4462 152.284 31.2176 153.667 31.2176Z" fill="#C4C6C7"/>
<path d="M187.898 42.7607C187.207 43.5492 186.398 44.3219 185.471 45.0788C184.559 45.82 183.616 46.4823 182.642 47.0658C181.668 47.6492 180.71 48.1144 179.767 48.4614C178.824 48.8241 177.976 49.0054 177.222 49.0054C176.467 49.0054 175.855 48.7925 175.383 48.3667C174.912 47.941 174.676 47.2156 174.676 46.1906C174.676 45.4652 174.802 44.6215 175.053 43.6596C174.645 44.2746 174.134 44.8975 173.521 45.5283C172.908 46.159 172.209 46.7346 171.424 47.255C170.638 47.7754 169.758 48.1933 168.784 48.5087C167.81 48.8398 166.749 49.0054 165.602 49.0054C165.084 49.0054 164.581 48.9502 164.094 48.8398C163.622 48.7294 163.206 48.5402 162.845 48.2721C162.483 48.004 162.193 47.6492 161.973 47.2077C161.753 46.7504 161.643 46.1827 161.643 45.5046C161.643 45.4888 161.674 45.2523 161.737 44.795C161.8 44.3219 161.996 43.5886 162.326 42.5952C162.672 41.5859 163.198 40.2849 163.905 38.6922C164.612 37.0995 165.61 35.1678 166.899 32.897C167.228 32.2978 167.606 31.872 168.03 31.6197C168.47 31.3516 168.941 31.2176 169.444 31.2176C169.664 31.2176 169.892 31.2491 170.127 31.3122C170.363 31.3595 170.583 31.4462 170.787 31.5724C170.992 31.6827 171.157 31.8326 171.282 32.0218C171.408 32.1953 171.471 32.4003 171.471 32.6368C171.471 32.7945 171.447 32.9443 171.4 33.0862C171.322 33.3543 171.149 33.7091 170.882 34.1507C170.63 34.5764 170.332 35.0732 169.986 35.6409C169.64 36.1928 169.271 36.792 168.878 37.4386C168.501 38.0851 168.148 38.7553 167.818 39.4492C167.488 40.143 167.205 40.8526 166.969 41.578C166.734 42.2877 166.6 42.9815 166.569 43.6596C166.569 43.9434 166.647 44.2036 166.804 44.4402C166.961 44.6767 167.221 44.795 167.582 44.795C168.603 44.795 169.577 44.5111 170.504 43.9434C171.432 43.3757 172.288 42.674 173.073 41.8382C173.859 40.9867 174.566 40.0799 175.195 39.118C175.839 38.1403 176.373 37.2493 176.797 36.4451C177.096 35.9089 177.355 35.3334 177.575 34.7184C177.811 34.1033 178.062 33.5357 178.329 33.0153C178.596 32.4949 178.903 32.0612 179.248 31.7143C179.594 31.3674 180.026 31.1939 180.545 31.1939C181.11 31.1939 181.558 31.3752 181.888 31.7379C182.218 32.1006 182.383 32.5343 182.383 33.0389C182.383 33.3228 182.273 33.717 182.053 34.2216C181.849 34.7105 181.582 35.2782 181.252 35.9247C180.938 36.5555 180.592 37.2336 180.215 37.959C179.838 38.6843 179.484 39.4255 179.154 40.1824C178.84 40.9236 178.573 41.6569 178.353 42.3823C178.149 43.0919 178.046 43.7542 178.046 44.3692C178.046 44.9369 178.392 45.2208 179.083 45.2208C179.571 45.2208 180.175 45.0788 180.898 44.795C181.621 44.5111 182.375 44.1169 183.161 43.6123C183.962 43.0919 184.756 42.4848 185.541 41.7909C186.343 41.0971 187.05 40.348 187.662 39.5438L187.898 42.7607Z" fill="#C4C6C7"/>
<path d="M190.83 35.0968C191.788 35.6014 192.645 36.177 193.399 36.8236C194.153 37.4701 194.79 38.1561 195.308 38.8815C195.842 39.5911 196.243 40.3165 196.51 41.0576C196.793 41.7988 196.934 42.5242 196.934 43.2338C196.934 44.1327 196.675 44.9448 196.156 45.6702C195.654 46.3798 194.986 46.9869 194.153 47.4915C193.336 47.9804 192.393 48.351 191.325 48.6033C190.272 48.8714 189.204 49.0054 188.12 49.0054C187.303 49.0054 186.509 48.9108 185.739 48.7216C184.969 48.5481 184.262 48.2721 183.618 47.8937C182.99 47.5152 182.447 47.0342 181.992 46.4508C181.536 45.8515 181.214 45.1419 181.025 44.3219C180.994 44.1957 180.978 44.0932 180.978 44.0144C180.978 43.5886 181.128 43.2259 181.426 42.9263C181.725 42.6109 182.055 42.4532 182.416 42.4532C182.589 42.4532 182.777 42.4848 182.982 42.5478C183.202 42.6109 183.367 42.7528 183.477 42.9736C183.681 43.3521 183.964 43.6911 184.325 43.9907C184.702 44.2904 185.119 44.5506 185.574 44.7713C186.03 44.9763 186.509 45.1419 187.012 45.2681C187.53 45.3784 188.033 45.4336 188.52 45.4336C189.023 45.4336 189.502 45.3863 189.958 45.2917C190.429 45.1971 190.838 45.0473 191.184 44.8423C191.545 44.6373 191.828 44.3771 192.032 44.0617C192.236 43.7463 192.338 43.36 192.338 42.9027C192.338 42.0984 192.158 41.3573 191.796 40.6792C191.435 40.0011 190.964 39.3782 190.382 38.8105C189.817 38.227 189.164 37.6909 188.426 37.202C187.703 36.6974 186.98 36.2164 186.258 35.7591C186.179 35.7118 186.061 35.5778 185.904 35.357C185.747 35.1205 185.668 34.8839 185.668 34.6474C185.668 34.4582 185.716 34.3083 185.81 34.198C186.061 33.8668 186.352 33.5278 186.682 33.1808C187.012 32.8339 187.365 32.5185 187.743 32.2347C188.12 31.9351 188.528 31.6985 188.968 31.5251C189.408 31.3358 189.864 31.2412 190.335 31.2412C190.681 31.2412 191.003 31.2885 191.301 31.3831C191.6 31.4777 191.851 31.6039 192.056 31.7616C192.26 31.9035 192.417 32.0691 192.527 32.2583C192.653 32.4318 192.715 32.5974 192.715 32.7551C192.715 32.9758 192.66 33.1887 192.551 33.3937C192.441 33.5987 192.291 33.7958 192.103 33.9851C191.93 34.1743 191.726 34.3635 191.49 34.5528C191.27 34.742 191.05 34.9234 190.83 35.0968Z" fill="#C4C6C7"/>
<path d="M207.62 34.4582C207.542 34.4424 207.471 34.4345 207.408 34.4345C207.345 34.4345 207.275 34.4345 207.196 34.4345C206.599 34.4345 206.041 34.5528 205.523 34.7893C205.004 35.0259 204.525 35.3412 204.085 35.7355C203.661 36.1139 203.276 36.5476 202.93 37.0365C202.6 37.5253 202.302 38.0142 202.034 38.503C201.767 38.9761 201.54 39.4334 201.351 39.8749C201.178 40.3165 201.045 40.6871 200.95 40.9867C201.5 40.7028 202.066 40.3796 202.647 40.0169C203.244 39.6542 203.802 39.3072 204.321 38.9761C204.839 38.6449 205.287 38.3453 205.664 38.0772C206.057 37.8091 206.332 37.6278 206.489 37.5332C207.196 37.0916 207.683 36.6816 207.95 36.3032C208.217 35.9089 208.351 35.5699 208.351 35.2861C208.351 35.0495 208.272 34.8603 208.115 34.7184C207.974 34.5764 207.809 34.4897 207.62 34.4582ZM208.469 31.1939C209.773 31.1939 210.747 31.5093 211.391 32.1401C212.035 32.7708 212.358 33.646 212.358 34.7657C212.358 35.428 212.185 36.1218 211.839 36.8472C211.493 37.5726 210.896 38.3138 210.048 39.0707C209.199 39.8119 208.06 40.5767 206.63 41.3651C205.216 42.1378 203.441 42.9184 201.304 43.7069C201.382 44.1642 201.626 44.5269 202.034 44.795C202.443 45.0473 202.985 45.1734 203.661 45.1734C204.383 45.1734 205.153 45.0709 205.97 44.8659C206.803 44.6452 207.62 44.3692 208.422 44.0381C209.239 43.7069 210.032 43.3521 210.802 42.9736C211.572 42.5794 212.263 42.2088 212.876 41.8619C213.505 41.515 214.023 41.2153 214.432 40.963C214.856 40.7107 215.139 40.553 215.28 40.4899C215.421 40.3953 215.547 40.3401 215.657 40.3244C215.783 40.3086 215.893 40.3007 215.987 40.3007C216.176 40.3007 216.333 40.348 216.458 40.4426C216.584 40.5215 216.686 40.624 216.765 40.7501C216.859 40.8605 216.922 40.9867 216.953 41.1286C216.985 41.2548 217.001 41.3651 217.001 41.4598C217.001 41.6017 216.985 41.7751 216.953 41.9801C216.922 42.1694 216.804 42.3902 216.6 42.6425C216.521 42.7213 216.254 42.9342 215.799 43.2811C215.359 43.628 214.785 44.0381 214.078 44.5111C213.371 44.9842 212.546 45.4888 211.603 46.025C210.676 46.5454 209.686 47.0263 208.634 47.4679C207.597 47.9094 206.513 48.2721 205.381 48.556C204.25 48.8556 203.134 49.0054 202.034 49.0054C201.092 49.0054 200.251 48.8241 199.513 48.4614C198.79 48.0987 198.169 47.6098 197.651 46.9948C197.148 46.3798 196.763 45.6702 196.496 44.8659C196.229 44.0617 196.095 43.218 196.095 42.335C196.095 41.6569 196.229 40.9157 196.496 40.1115C196.763 39.2915 197.148 38.4715 197.651 37.6515C198.154 36.8314 198.766 36.0351 199.489 35.2624C200.228 34.4739 201.052 33.7801 201.964 33.1808C202.875 32.5816 203.873 32.1006 204.957 31.7379C206.057 31.3752 207.227 31.1939 208.469 31.1939Z" fill="#C4C6C7"/>
<path d="M34.0722 4.47333C33.5053 5.57108 33.2021 6.77302 33.1083 7.99909C32.8376 8.48962 32.4991 8.94227 32.0786 9.33355C30.8151 10.5074 29.3338 9.68483 28.7602 8.46446C28.741 7.88086 28.6495 7.29499 28.4864 6.72732C28.2661 5.96543 27.2414 6.37772 27.1077 6.99245C26.9293 7.81569 27.0329 8.619 27.3404 9.31616C26.8619 13.0563 21.611 15.0278 19.2764 11.5182C19.1902 11.3589 19.0952 11.2018 18.9969 11.048C18.9949 11.0437 18.9907 11.0394 18.9887 11.0351C18.96 10.9903 18.9367 10.9443 18.907 10.9005C18.5281 10.3379 17.6245 10.9629 17.8838 11.5573C18.059 11.9568 18.2645 12.3224 18.4915 12.6566C20.1317 16.6904 15.6798 21.7106 12.0819 19.7584C11.6271 19.1116 11.0557 18.571 10.3864 18.218C9.87485 17.948 9.29864 18.5169 9.66048 19.0087C10.1016 19.6103 10.5981 20.1057 11.1314 20.4982C11.813 21.7085 11.8723 23.2869 11.5005 24.7042C10.8126 27.3235 7.36638 27.7326 5.1407 27.8982C4.6394 27.935 4.59977 28.7015 5.03499 28.8357C7.80846 29.6927 10.452 31.0523 13.1907 32.0455C13.393 32.1182 13.5763 31.7947 13.3781 31.6929C11.3702 30.6651 9.12135 29.9444 7.10714 28.9103C9.66084 28.8298 12.1788 28.0442 13.0467 25.2296C13.4202 24.0192 13.3377 22.6199 12.8981 21.36C14.4292 21.7564 16.1117 21.3666 17.7066 20.0159C19.55 18.4552 20.3029 16.3078 20.1033 14.2185C21.4718 15.0642 23.1979 15.207 25.0345 14.4596C26.8045 13.74 27.9373 12.3503 28.4479 10.747C29.1316 11.2818 30.0116 11.5868 30.9902 11.522C31.8641 11.464 32.6067 11.1405 33.2277 10.6486C33.4716 12.1545 33.9985 13.6082 34.7345 14.8673C30.5517 16.0317 14.853 25.7462 15.4281 36.9116C17.2529 25.9791 31.8197 16.7548 36.267 16.2569C36.9399 16.1811 37.1711 15.3248 36.8115 14.8621C35.5797 13.28 34.7245 11.0099 34.7091 8.79421C35.3674 7.54443 35.697 6.06636 35.736 4.80225C35.7667 3.78816 34.5287 3.58605 34.0722 4.47333Z" fill="#C4C6C7"/>
<path d="M1.2033 26.577C0.554558 27.1232 0.443239 28.0996 0.961235 28.7239C1.47819 29.3471 2.45135 29.4128 3.10224 28.8665C3.75098 28.3203 3.8623 27.3439 3.3443 26.7196C2.82519 26.0963 1.85203 26.0307 1.2033 26.577Z" fill="#C4C6C7"/>
<path d="M8.95326 15.2952C8.71819 15.0732 8.53508 14.9087 8.22561 14.7846C7.23343 14.3853 6.00587 15.4176 6.21847 16.4726C6.28508 16.8013 6.41276 17.0118 6.58683 17.2852C6.78549 17.5971 7.24084 17.7742 7.59891 17.7985C7.99573 17.8244 8.40004 17.6908 8.7117 17.427C9.02441 17.1643 9.22775 16.7878 9.27336 16.3907C9.31447 16.0315 9.22182 15.5469 8.95326 15.2952Z" fill="#C4C6C7"/>
<path d="M15.2404 7.02183C14.5174 7.63045 14.3938 8.71687 14.9687 9.41046C15.5447 10.1051 16.6287 10.1768 17.3506 9.56926C18.0725 8.96173 18.1951 7.87424 17.6212 7.17957C17.0463 6.48598 15.9634 6.41322 15.2404 7.02183Z" fill="#C4C6C7"/>
<path d="M26.1934 2.78294C25.5291 3.34229 25.4149 4.34026 25.9432 4.97953C26.4726 5.6177 27.4683 5.68409 28.1326 5.12474C28.7969 4.56539 28.91 3.56636 28.3806 2.92818C27.8534 2.28997 26.8587 2.22464 26.1934 2.78294Z" fill="#C4C6C7"/>
<path d="M34.6805 0.854093C34.2347 1.22847 34.1584 1.89953 34.5137 2.3289C34.868 2.75721 35.5368 2.80212 35.9826 2.42774C36.4284 2.05336 36.5047 1.3823 36.1494 0.952933C35.7951 0.524626 35.1274 0.478622 34.6805 0.854093Z" fill="#C4C6C7"/>
</svg>
