<svg width="72" height="72" viewBox="0 0 72 72" fill="none" xmlns="http://www.w3.org/2000/svg">
<path d="M19.4142 51.8693C18.6332 51.0882 18.6332 49.8219 19.4142 49.0409L49.0416 19.4134C49.8227 18.6324 51.089 18.6324 51.8701 19.4134C52.6511 20.1945 52.6511 21.4608 51.8701 22.2419L22.2426 51.8693C21.4616 52.6503 20.1953 52.6503 19.4142 51.8693Z" fill="#010509"/>
<path d="M19.5858 19.4142C20.3668 18.6332 21.6332 18.6332 22.4142 19.4142L52.0416 49.0416C52.8227 49.8227 52.8227 51.089 52.0416 51.8701C51.2606 52.6511 49.9943 52.6511 49.2132 51.8701L19.5858 22.2426C18.8047 21.4616 18.8047 20.1953 19.5858 19.4142Z" fill="#010509"/>
</svg>
