<svg width="240" height="56" viewBox="0 0 240 56" fill="none" xmlns="http://www.w3.org/2000/svg">
<path d="M46.1046 20.2212C46.1046 20.6949 46.0255 21.2651 45.8674 21.9317C45.7268 22.5984 45.5159 23.2914 45.2348 24.0107C44.9536 24.73 44.611 25.4493 44.2068 26.1686C43.8202 26.8703 43.3721 27.5107 42.8625 28.0896C42.3529 28.651 41.7994 29.1072 41.2019 29.4581C40.6045 29.8089 39.9631 29.9844 39.2778 29.9844C39.1196 29.9844 38.9088 29.9756 38.6452 29.9581C38.3992 29.923 38.1444 29.8616 37.8808 29.7738C37.6348 29.6686 37.4151 29.5195 37.2218 29.3265C37.0461 29.1335 36.9582 28.8791 36.9582 28.5633C36.9582 28.3528 37.0109 28.1072 37.1164 27.8265C37.2394 27.5458 37.4503 27.2212 37.749 26.8528C38.0653 26.5019 38.4079 26.0896 38.777 25.616C39.146 25.1247 39.4799 24.616 39.7786 24.0896C40.0773 23.5633 40.3233 23.0458 40.5166 22.537C40.7275 22.0282 40.8329 21.5721 40.8329 21.1686C40.8329 20.6598 40.7099 20.2563 40.4639 19.9581C40.2355 19.6423 39.8313 19.4844 39.2514 19.4844C38.4958 19.4844 37.6436 19.73 36.6946 20.2212C35.7457 20.7124 34.7529 21.3879 33.7161 22.2475C32.6794 23.1072 31.625 24.116 30.5531 25.2738C29.4812 26.4142 28.4444 27.6423 27.4428 28.9581C26.4412 30.2563 25.4923 31.616 24.5961 33.037C23.7175 34.4405 22.9443 35.8353 22.2766 37.2212C21.6264 38.5896 21.108 39.9142 20.7214 41.1949C20.3524 42.4581 20.1679 43.6072 20.1679 44.6423C20.1679 45.923 20.5105 46.9493 21.1959 47.7212C21.8812 48.4931 23.0146 48.8791 24.5961 48.8791C25.3341 48.8791 26.4324 48.5984 27.8909 48.037C29.3494 47.4581 30.5619 46.8879 31.5284 46.3265C32.5124 45.7475 33.4965 45.116 34.4805 44.4317C35.4822 43.73 36.4311 43.0633 37.3272 42.4317C38.2234 41.7826 39.0405 41.2037 39.7786 40.6949C40.5166 40.1686 41.1229 39.8002 41.5973 39.5896C41.6852 39.5195 41.7906 39.4844 41.9136 39.4844C42.1772 39.4844 42.3529 39.7037 42.4408 40.1423C42.5462 40.5633 42.5989 41.0458 42.5989 41.5896C42.5989 41.8879 42.555 42.2563 42.4672 42.6949C42.3969 43.116 42.1508 43.6072 41.7291 44.1686C41.5358 44.3967 41.1756 44.7826 40.6484 45.3265C40.1212 45.8703 39.4623 46.4844 38.6715 47.1686C37.8808 47.8528 36.9758 48.5633 35.9566 49.3002C34.9374 50.037 33.8304 50.7124 32.6354 51.3265C31.4581 51.9405 29.9293 52.5458 28.0491 53.1423C26.1864 53.7388 24.561 54.037 23.1727 54.037C21.5385 54.037 20.1415 53.844 18.9818 53.4581C17.822 53.0546 16.8731 52.5019 16.135 51.8002C15.397 51.0984 14.8523 50.2651 14.5008 49.3002C14.1669 48.3177 14 47.2475 14 46.0896C14 44.651 14.2197 43.1072 14.659 41.4581C15.0983 39.8089 15.7045 38.1335 16.4777 36.4317C17.2685 34.73 18.1998 33.0282 19.2717 31.3265C20.3612 29.6247 21.5473 28.0019 22.8301 26.4581C24.1304 24.8967 25.5099 23.4493 26.9684 22.116C28.4269 20.7826 29.9205 19.6247 31.4493 18.6423C32.9781 17.6598 34.5157 16.8879 36.062 16.3265C37.6084 15.7651 39.1284 15.4844 40.6221 15.4844C41.3601 15.4844 42.063 15.5721 42.7307 15.7475C43.3985 15.9054 43.9784 16.1686 44.4704 16.537C44.98 16.9054 45.3754 17.3967 45.6565 18.0107C45.9553 18.6072 46.1046 19.344 46.1046 20.2212Z" fill="#9B8A71"/>
<path d="M50.5434 37.9317C50.4555 37.9142 50.3764 37.9054 50.3062 37.9054C50.2359 37.9054 50.1568 37.9054 50.0689 37.9054C49.4012 37.9054 48.7774 38.037 48.1975 38.3002C47.6176 38.5633 47.0816 38.9142 46.5896 39.3528C46.1152 39.7738 45.6846 40.2563 45.2981 40.8002C44.929 41.344 44.5952 41.8879 44.2964 42.4317C43.9977 42.9581 43.7429 43.4668 43.532 43.9581C43.3387 44.4493 43.1894 44.8616 43.0839 45.1949C43.699 44.8791 44.3316 44.5195 44.9817 44.116C45.6495 43.7124 46.2733 43.3265 46.8532 42.9581C47.4331 42.5896 47.9339 42.2563 48.3556 41.9581C48.7949 41.6598 49.1025 41.4581 49.2782 41.3528C50.0689 40.8616 50.6137 40.4054 50.9124 39.9844C51.2111 39.5458 51.3605 39.1686 51.3605 38.8528C51.3605 38.5896 51.2726 38.3791 51.0969 38.2212C50.9388 38.0633 50.7543 37.9668 50.5434 37.9317ZM51.4923 34.3002C52.9508 34.3002 54.0403 34.651 54.7607 35.3528C55.4812 36.0546 55.8414 37.0282 55.8414 38.2738C55.8414 39.0107 55.6481 39.7826 55.2616 40.5896C54.875 41.3967 54.2072 42.2212 53.2583 43.0633C52.3094 43.8879 51.0354 44.7388 49.4363 45.616C47.8548 46.4756 45.8692 47.344 43.4793 48.2212C43.5672 48.73 43.8395 49.1335 44.2964 49.4317C44.7533 49.7124 45.3596 49.8528 46.1152 49.8528C46.9235 49.8528 47.7845 49.7388 48.6983 49.5107C49.6296 49.2651 50.5434 48.9581 51.4396 48.5896C52.3533 48.2212 53.2407 47.8265 54.1018 47.4054C54.9628 46.9668 55.736 46.5546 56.4213 46.1686C57.1242 45.7826 57.7041 45.4493 58.161 45.1686C58.6354 44.8879 58.9517 44.7124 59.1099 44.6423C59.268 44.537 59.4086 44.4756 59.5316 44.4581C59.6722 44.4405 59.7952 44.4317 59.9006 44.4317C60.1115 44.4317 60.2872 44.4844 60.4278 44.5896C60.5684 44.6774 60.6826 44.7914 60.7705 44.9317C60.8759 45.0546 60.9462 45.1949 60.9813 45.3528C61.0165 45.4931 61.0341 45.616 61.0341 45.7212C61.0341 45.8791 61.0165 46.0721 60.9813 46.3002C60.9462 46.5107 60.8144 46.7563 60.586 47.037C60.4981 47.1247 60.1994 47.3616 59.6898 47.7475C59.1977 48.1335 58.5564 48.5896 57.7656 49.116C56.9749 49.6423 56.0523 50.2037 54.998 50.8002C53.9612 51.3791 52.8541 51.9142 51.6768 52.4054C50.517 52.8967 49.3045 53.3002 48.0393 53.616C46.7741 53.9493 45.5265 54.116 44.2964 54.116C43.2421 54.116 42.302 53.9142 41.4761 53.5107C40.6677 53.1072 39.9736 52.5633 39.3938 51.8791C38.8314 51.1949 38.4009 50.4054 38.1022 49.5107C37.8035 48.616 37.6541 47.6774 37.6541 46.6949C37.6541 45.9405 37.8035 45.116 38.1022 44.2212C38.4009 43.3089 38.8314 42.3967 39.3938 41.4844C39.9561 40.5721 40.6414 39.6861 41.4497 38.8265C42.2756 37.9493 43.1982 37.1774 44.2174 36.5107C45.2365 35.844 46.3524 35.3089 47.5649 34.9054C48.7949 34.5019 50.1041 34.3002 51.4923 34.3002Z" fill="#9B8A71"/>
<path d="M61.9671 45.8528C61.7739 46.2563 61.5806 46.73 61.3873 47.2738C61.2115 47.8002 61.1237 48.2738 61.1237 48.6949C61.1237 48.9581 61.1764 49.1686 61.2818 49.3265C61.3873 49.4844 61.5893 49.5633 61.8881 49.5633C62.2571 49.5633 62.714 49.4581 63.2587 49.2475C63.821 49.0195 64.4185 48.73 65.0511 48.3791C65.7013 48.0107 66.369 47.5984 67.0543 47.1423C67.7572 46.6686 68.4513 46.1861 69.1367 45.6949C69.822 45.1861 70.4721 44.6861 71.0872 44.1949C71.7198 43.6861 72.2821 43.2212 72.7741 42.8002C72.9147 42.6774 73.0816 42.5896 73.2749 42.537C73.4682 42.4844 73.6352 42.4581 73.7757 42.4581C74.1272 42.4581 74.4171 42.5809 74.6456 42.8265C74.874 43.0721 74.9882 43.3967 74.9882 43.8002C74.9882 44.1686 74.8652 44.5809 74.6192 45.037C74.3732 45.4931 73.9427 45.9405 73.3277 46.3791C72.203 47.4142 71.0696 48.3967 69.9274 49.3265C68.7852 50.2563 67.643 51.0809 66.5008 51.8002C65.3762 52.5019 64.2515 53.0633 63.1269 53.4844C62.0199 53.9054 60.9392 54.116 59.8848 54.116C59.1644 54.116 58.5581 54.0195 58.0661 53.8265C57.5916 53.6335 57.2051 53.3703 56.9063 53.037C56.6252 52.7037 56.4231 52.3089 56.3001 51.8528C56.1771 51.3967 56.1156 50.9142 56.1156 50.4054C56.1156 49.5458 56.2386 48.6686 56.4846 47.7738C56.7482 46.8616 57.0557 46.0282 57.4071 45.2738C58.0222 43.9054 58.646 42.5458 59.2786 41.1949C59.9112 39.844 60.4911 38.6072 61.0182 37.4844L69.0049 20.5107C69.3212 19.8265 69.7429 19.344 70.2701 19.0633C70.8148 18.7826 71.3596 18.6423 71.9043 18.6423C72.449 18.6423 72.9411 18.7914 73.3804 19.0896C73.8372 19.3879 74.0657 19.8703 74.0657 20.537C74.0657 20.8528 73.9866 21.1861 73.8285 21.537C73.6879 21.8879 73.5034 22.2651 73.2749 22.6686C72.8356 23.4931 72.3085 24.5019 71.6934 25.6949C71.096 26.8879 70.4458 28.1861 69.7429 29.5896C69.0576 30.9931 68.3459 32.4581 67.6079 33.9844C66.8874 35.4931 66.1757 36.9668 65.4728 38.4054C64.7875 39.844 64.1373 41.2124 63.5223 42.5107C62.9248 43.7914 62.4065 44.9054 61.9671 45.8528Z" fill="#9B8A71"/>
<path d="M81.6675 37.9317C81.5796 37.9142 81.5005 37.9054 81.4302 37.9054C81.36 37.9054 81.2809 37.9054 81.193 37.9054C80.5253 37.9054 79.9015 38.037 79.3216 38.3002C78.7417 38.5633 78.2057 38.9142 77.7137 39.3528C77.2392 39.7738 76.8087 40.2563 76.4221 40.8002C76.0531 41.344 75.7192 41.8879 75.4205 42.4317C75.1218 42.9581 74.867 43.4668 74.6561 43.9581C74.4628 44.4493 74.3135 44.8616 74.208 45.1949C74.8231 44.8791 75.4557 44.5195 76.1058 44.116C76.7736 43.7124 77.3974 43.3265 77.9773 42.9581C78.5572 42.5896 79.058 42.2563 79.4797 41.9581C79.919 41.6598 80.2265 41.4581 80.4023 41.3528C81.193 40.8616 81.7378 40.4054 82.0365 39.9844C82.3352 39.5458 82.4846 39.1686 82.4846 38.8528C82.4846 38.5896 82.3967 38.3791 82.221 38.2212C82.0629 38.0633 81.8783 37.9668 81.6675 37.9317ZM82.6164 34.3002C84.0749 34.3002 85.1644 34.651 85.8848 35.3528C86.6053 36.0546 86.9655 37.0282 86.9655 38.2738C86.9655 39.0107 86.7722 39.7826 86.3856 40.5896C85.999 41.3967 85.3313 42.2212 84.3824 43.0633C83.4335 43.8879 82.1595 44.7388 80.5604 45.616C78.9789 46.4756 76.9932 47.344 74.6034 48.2212C74.6913 48.73 74.9636 49.1335 75.4205 49.4317C75.8774 49.7124 76.4836 49.8528 77.2392 49.8528C78.0476 49.8528 78.9086 49.7388 79.8224 49.5107C80.7537 49.2651 81.6675 48.9581 82.5637 48.5896C83.4774 48.2212 84.3648 47.8265 85.2259 47.4054C86.0869 46.9668 86.8601 46.5546 87.5454 46.1686C88.2483 45.7826 88.8282 45.4493 89.2851 45.1686C89.7595 44.8879 90.0758 44.7124 90.234 44.6423C90.3921 44.537 90.5327 44.4756 90.6557 44.4581C90.7963 44.4405 90.9193 44.4317 91.0247 44.4317C91.2356 44.4317 91.4113 44.4844 91.5519 44.5896C91.6925 44.6774 91.8067 44.7914 91.8946 44.9317C92 45.0546 92.0703 45.1949 92.1054 45.3528C92.1406 45.4931 92.1581 45.616 92.1581 45.7212C92.1581 45.8791 92.1406 46.0721 92.1054 46.3002C92.0703 46.5107 91.9385 46.7563 91.71 47.037C91.6222 47.1247 91.3235 47.3616 90.8139 47.7475C90.3218 48.1335 89.6804 48.5896 88.8897 49.116C88.0989 49.6423 87.1764 50.2037 86.1221 50.8002C85.0853 51.3791 83.9782 51.9142 82.8009 52.4054C81.6411 52.8967 80.4286 53.3002 79.1634 53.616C77.8982 53.9493 76.6506 54.116 75.4205 54.116C74.3662 54.116 73.4261 53.9142 72.6002 53.5107C71.7918 53.1072 71.0977 52.5633 70.5178 51.8791C69.9555 51.1949 69.525 50.4054 69.2263 49.5107C68.9275 48.616 68.7782 47.6774 68.7782 46.6949C68.7782 45.9405 68.9275 45.116 69.2263 44.2212C69.525 43.3089 69.9555 42.3967 70.5178 41.4844C71.0802 40.5721 71.7655 39.6861 72.5738 38.8265C73.3997 37.9493 74.3222 37.1774 75.3414 36.5107C76.3606 35.844 77.4765 35.3089 78.689 34.9054C79.919 34.5019 81.2282 34.3002 82.6164 34.3002Z" fill="#9B8A71"/>
<path d="M101.895 38.6949C100.893 38.6949 99.8917 38.9405 98.8901 39.4317C97.8885 39.9054 96.9835 40.537 96.1752 41.3265C95.3844 42.116 94.7343 43.0107 94.2247 44.0107C93.7151 44.9931 93.4603 45.9931 93.4603 47.0107C93.4603 47.2914 93.4866 47.5809 93.5393 47.8791C93.5921 48.1598 93.6975 48.423 93.8556 48.6686C94.0314 48.9142 94.2774 49.116 94.5937 49.2738C94.91 49.4317 95.3317 49.5107 95.8589 49.5107C96.8781 49.5107 97.8621 49.2738 98.811 48.8002C99.7775 48.3089 100.639 47.6686 101.394 46.8791C102.15 46.0896 102.756 45.2037 103.213 44.2212C103.67 43.2212 103.898 42.2212 103.898 41.2212C103.898 40.9581 103.872 40.6774 103.819 40.3791C103.784 40.0809 103.696 39.8089 103.556 39.5633C103.415 39.3177 103.213 39.116 102.949 38.9581C102.686 38.7826 102.334 38.6949 101.895 38.6949ZM104.109 49.3002C102.615 51.0896 101.025 52.4054 99.3382 53.2475C97.6688 54.0721 95.8589 54.4844 93.9084 54.4844C92.8364 54.4844 91.9315 54.3265 91.1934 54.0107C90.4554 53.7124 89.8579 53.3002 89.4011 52.7738C88.9442 52.2475 88.6103 51.6335 88.3994 50.9317C88.2061 50.23 88.1095 49.4844 88.1095 48.6949C88.1095 47.8002 88.2237 46.8791 88.4522 45.9317C88.6806 44.9668 88.9793 44.037 89.3483 43.1423C89.5944 42.5633 89.7964 42.0809 89.9546 41.6949C90.1127 41.3089 90.2445 40.9844 90.35 40.7212C90.4554 40.4405 90.5433 40.2037 90.6135 40.0107C90.7014 39.8002 90.7893 39.5896 90.8771 39.3791C90.965 39.151 91.0704 38.8967 91.1934 38.616C91.3164 38.3177 91.4834 37.9405 91.6942 37.4844L99.3909 20.4054C99.4964 20.1774 99.6457 19.9581 99.839 19.7475C100.05 19.537 100.287 19.3528 100.551 19.1949C100.814 19.0195 101.095 18.8879 101.394 18.8002C101.71 18.6949 102.027 18.6423 102.343 18.6423C103.151 18.6423 103.714 18.8002 104.03 19.116C104.364 19.4317 104.531 19.8177 104.531 20.2738C104.531 20.6247 104.443 21.0107 104.267 21.4317C104.092 21.8353 103.898 22.2124 103.687 22.5633C102.387 25.0546 101.157 27.5896 99.9972 30.1686C98.8374 32.73 97.6073 35.2651 96.307 37.7738C96.8693 37.3353 97.4667 36.9142 98.0994 36.5107C98.732 36.0896 99.3909 35.7212 100.076 35.4054C100.762 35.0721 101.473 34.8089 102.211 34.616C102.949 34.4054 103.705 34.3002 104.478 34.3002C105.023 34.3002 105.576 34.4054 106.139 34.616C106.701 34.8265 107.211 35.1335 107.667 35.537C108.142 35.9405 108.52 36.4405 108.801 37.037C109.1 37.616 109.249 38.2914 109.249 39.0633C109.249 39.2388 109.196 39.5896 109.091 40.116C108.985 40.6423 108.827 41.2388 108.616 41.9054C108.423 42.5546 108.177 43.23 107.878 43.9317C107.597 44.616 107.281 45.2212 106.929 45.7475C107.052 45.9405 107.211 46.0633 107.404 46.116C107.597 46.151 107.817 46.1686 108.063 46.1686C108.871 46.1686 109.671 46.0633 110.461 45.8528C111.27 45.6423 112.025 45.3879 112.728 45.0896C113.449 44.7738 114.108 44.4493 114.705 44.116C115.303 43.7826 115.803 43.4931 116.208 43.2475C116.418 43.0195 116.647 42.9054 116.893 42.9054C117.192 42.9054 117.446 43.037 117.657 43.3002C117.886 43.5633 118 43.9054 118 44.3265C118 44.73 117.912 45.1335 117.736 45.537C117.578 45.923 117.28 46.3528 116.84 46.8265C116.049 47.3002 115.25 47.7475 114.442 48.1686C113.651 48.5896 112.843 48.9581 112.017 49.2738C111.191 49.5721 110.347 49.8177 109.486 50.0107C108.643 50.1861 107.782 50.2738 106.903 50.2738C106.341 50.2738 105.822 50.1949 105.348 50.037C104.873 49.8791 104.461 49.6335 104.109 49.3002Z" fill="#9B8A71"/>
<path d="M154.576 42.7106C154.489 42.7106 154.411 42.7193 154.341 42.7368C154.289 42.7368 154.228 42.7368 154.158 42.7368C153.304 44.6603 152.546 46.3478 151.884 47.7991C151.24 49.2505 150.743 50.2997 150.395 50.9467C150.098 51.4887 149.759 51.9609 149.375 52.3631C149.009 52.7653 148.617 53.0975 148.199 53.3598C147.781 53.6396 147.354 53.8407 146.919 53.9631C146.501 54.103 146.109 54.1729 145.743 54.1729C145.203 54.1729 144.75 54.0418 144.384 53.7795C144.018 53.5172 143.835 53.1237 143.835 52.5991C143.835 52.1445 143.974 51.6112 144.253 50.9991L148.016 42.9991C146.117 43.0691 144.288 43.1303 142.528 43.1827C140.786 43.2352 139.104 43.2789 137.484 43.3139C136.665 44.9926 135.785 46.5751 134.844 48.0614C133.904 49.5303 132.911 50.8155 131.865 51.9172C130.82 53.0188 129.731 53.8844 128.598 54.5139C127.466 55.1609 126.29 55.4844 125.07 55.4844C124.129 55.4844 123.258 55.2396 122.457 54.75C122.213 54.645 121.943 54.4439 121.646 54.1467C121.368 53.8669 121.106 53.5259 120.862 53.1237C120.619 52.7215 120.409 52.2844 120.235 51.8122C120.078 51.3401 120 50.8592 120 50.3696C120 50.0199 120.061 49.6877 120.183 49.3729C120.305 49.0407 120.479 48.7259 120.706 48.4286C120.81 48.3062 120.932 48.1489 121.072 47.9565C121.211 47.7642 121.376 47.5806 121.568 47.4057C121.76 47.2133 121.96 47.056 122.169 46.9336C122.396 46.8112 122.64 46.7499 122.901 46.7499C123.005 46.7499 123.11 46.7674 123.215 46.8024C123.319 46.8199 123.415 46.8636 123.502 46.9336C123.676 47.0385 123.842 47.2745 123.999 47.6418C124.173 48.009 124.356 48.3937 124.547 48.7959C124.757 49.1806 124.983 49.5303 125.227 49.845C125.471 50.1598 125.758 50.3172 126.089 50.3172C126.56 50.3172 127.03 50.1423 127.501 49.7926C127.989 49.4254 128.476 48.927 128.964 48.2975C129.469 47.6505 129.975 46.8811 130.48 45.9893C130.985 45.0975 131.491 44.127 131.996 43.0778C131.438 42.903 131.046 42.6581 130.82 42.3434C130.593 42.0112 130.48 41.6702 130.48 41.3204C130.48 41.1106 130.558 40.9008 130.715 40.6909C130.872 40.4811 131.09 40.2975 131.369 40.1401C131.647 39.9653 131.97 39.8166 132.336 39.6942C132.719 39.5718 133.137 39.5019 133.59 39.4844C134.217 37.9456 134.818 36.3456 135.393 34.6844C135.968 33.0232 136.517 31.3969 137.04 29.8057C137.563 28.2144 138.042 26.6931 138.477 25.2418C138.913 23.7729 139.296 22.4614 139.627 21.3073C139.958 20.1532 140.228 19.2002 140.437 18.4483C140.646 17.6964 140.777 17.2243 140.829 17.0319C140.969 16.4898 141.23 16.0964 141.613 15.8516C142.014 15.6068 142.441 15.4844 142.894 15.4844C143.573 15.4844 144.087 15.7117 144.436 16.1663C144.802 16.6035 144.985 17.4079 144.985 18.5795C144.985 18.7193 144.985 18.868 144.985 19.0254C144.985 19.1652 144.976 19.3226 144.959 19.4975C144.924 19.9521 144.837 20.5729 144.697 21.3598C144.558 22.1292 144.375 23.021 144.148 24.0352C143.922 25.0494 143.643 26.1685 143.312 27.3926C142.981 28.5991 142.606 29.8669 142.188 31.1959C141.788 32.5073 141.335 33.8625 140.829 35.2614C140.341 36.6603 139.81 38.0505 139.235 39.4319C139.775 39.4319 140.368 39.4319 141.012 39.4319C141.657 39.4319 142.38 39.4407 143.181 39.4581C144 39.4581 144.924 39.4756 145.952 39.5106C146.98 39.5281 148.156 39.5543 149.48 39.5893C149.497 39.5893 149.515 39.598 149.532 39.6155C149.55 39.6155 149.567 39.6155 149.584 39.6155C151.118 36.3806 152.573 33.3379 153.949 30.4877C155.325 27.6199 156.589 25.1193 157.738 22.986C158.888 20.8352 159.908 19.139 160.796 17.8975C161.685 16.656 162.417 16.0352 162.992 16.0352C163.601 16.0352 164.054 16.1838 164.351 16.4811C164.664 16.7609 164.821 17.1456 164.821 17.6352C164.821 17.8975 164.786 18.1336 164.716 18.3434C164.664 18.5357 164.586 18.7543 164.481 18.9991C164.028 20.1008 163.453 21.456 162.756 23.0647C162.059 24.6734 161.302 26.4133 160.483 28.2844C159.664 30.1379 158.81 32.0702 157.921 34.0811C157.05 36.0745 156.205 38.0068 155.386 39.8778C155.909 39.9827 156.336 40.1314 156.667 40.3237C157.015 40.4986 157.19 40.7346 157.19 41.0319C157.19 41.4166 156.989 41.7838 156.589 42.1336C156.188 42.4658 155.517 42.6581 154.576 42.7106Z" fill="#9B8A71"/>
<path d="M168.412 38.8811C167.593 38.8811 166.8 39.0909 166.034 39.5106C165.284 39.9128 164.614 40.4549 164.021 41.1368C163.446 41.8013 162.985 42.562 162.636 43.4188C162.288 44.2581 162.113 45.1237 162.113 46.0155C162.113 46.3478 162.14 46.715 162.192 47.1172C162.244 47.5019 162.349 47.8691 162.505 48.2188C162.68 48.551 162.924 48.8308 163.237 49.0581C163.551 49.2855 163.969 49.3991 164.492 49.3991C165.293 49.3991 166.068 49.1893 166.818 48.7696C167.584 48.3325 168.264 47.7729 168.856 47.0909C169.449 46.3915 169.919 45.6046 170.267 44.7303C170.616 43.856 170.79 42.9729 170.79 42.0811C170.79 41.7314 170.764 41.3729 170.712 41.0057C170.677 40.621 170.572 40.2713 170.398 39.9565C170.241 39.6418 170.006 39.3882 169.692 39.1959C169.379 38.986 168.952 38.8811 168.412 38.8811ZM169.771 34.2647C170.433 34.2647 171.139 34.3521 171.888 34.527C172.654 34.7019 173.36 34.9991 174.005 35.4188C174.649 35.8385 175.181 36.398 175.599 37.0975C176.034 37.7795 176.252 38.6275 176.252 39.6418C176.252 40.1663 176.183 40.7696 176.043 41.4516C175.904 42.1161 175.695 42.8155 175.416 43.5499C175.59 43.7598 175.791 43.9084 176.017 43.9959C176.244 44.0833 176.487 44.127 176.749 44.127C177.115 44.127 177.515 44.0221 177.951 43.8122C178.404 43.6024 178.866 43.3314 179.336 42.9991C179.807 42.6669 180.277 42.2909 180.747 41.8713C181.218 41.4516 181.662 41.0319 182.08 40.6122C182.498 40.1926 182.873 39.7991 183.204 39.4319C183.553 39.0472 183.84 38.7237 184.067 38.4614C184.189 38.339 184.337 38.2778 184.511 38.2778C184.755 38.2778 184.973 38.409 185.164 38.6713C185.356 38.9161 185.452 39.2658 185.452 39.7204C185.452 40.1751 185.312 40.6997 185.034 41.2942C184.772 41.8887 184.276 42.5095 183.544 43.1565C183.126 43.6112 182.647 44.1357 182.106 44.7303C181.566 45.3248 180.991 45.8844 180.382 46.409C179.772 46.9336 179.136 47.3795 178.474 47.7467C177.812 48.1139 177.15 48.2975 176.487 48.2975C176.034 48.2975 175.59 48.2275 175.155 48.0877C174.736 47.9478 174.31 47.7204 173.874 47.4057C173.247 48.3849 172.532 49.2767 171.731 50.0811C170.93 50.8855 170.032 51.5762 169.039 52.1532C168.063 52.7303 167.001 53.1762 165.851 53.4909C164.718 53.8232 163.507 53.9893 162.218 53.9893C161.73 53.9893 161.164 53.8931 160.519 53.7008C159.875 53.5084 159.256 53.1937 158.664 52.7565C158.089 52.3019 157.601 51.7161 157.2 50.9991C156.799 50.2822 156.599 49.4079 156.599 48.3762C156.599 47.6767 156.712 46.8374 156.939 45.8581C157.165 44.8789 157.505 43.8734 157.958 42.8418C158.428 41.7926 159.012 40.7609 159.709 39.7467C160.423 38.715 161.268 37.7969 162.244 36.9926C163.22 36.1707 164.335 35.515 165.589 35.0254C166.844 34.5183 168.238 34.2647 169.771 34.2647Z" fill="#9B8A71"/>
<path d="M207.729 47.0647C206.962 47.939 206.065 48.7959 205.037 49.6352C204.026 50.4571 202.981 51.1915 201.901 51.8385C200.821 52.4855 199.758 53.0013 198.712 53.386C197.667 53.7882 196.726 53.9893 195.89 53.9893C195.054 53.9893 194.374 53.7532 193.851 53.2811C193.329 52.809 193.067 52.0046 193.067 50.868C193.067 50.0636 193.207 49.1281 193.485 48.0614C193.032 48.7434 192.466 49.4341 191.787 50.1336C191.107 50.833 190.332 51.4713 189.461 52.0483C188.59 52.6254 187.614 53.0887 186.534 53.4385C185.453 53.8057 184.277 53.9893 183.005 53.9893C182.431 53.9893 181.873 53.9281 181.333 53.8057C180.81 53.6833 180.348 53.4734 179.948 53.1762C179.547 52.8789 179.225 52.4855 178.981 51.9959C178.737 51.4887 178.615 50.8592 178.615 50.1073C178.615 50.0898 178.65 49.8275 178.719 49.3204C178.789 48.7959 179.007 47.9827 179.373 46.8811C179.756 45.762 180.34 44.3193 181.124 42.5532C181.908 40.7871 183.014 38.645 184.443 36.127C184.809 35.4625 185.227 34.9904 185.697 34.7106C186.185 34.4133 186.708 34.2647 187.265 34.2647C187.509 34.2647 187.762 34.2997 188.023 34.3696C188.285 34.4221 188.529 34.5183 188.755 34.6581C188.982 34.7806 189.165 34.9467 189.304 35.1565C189.443 35.3489 189.513 35.5762 189.513 35.8385C189.513 36.0133 189.487 36.1795 189.435 36.3368C189.347 36.6341 189.156 37.0275 188.86 37.5172C188.581 37.9893 188.25 38.5401 187.867 39.1696C187.483 39.7816 187.074 40.4461 186.638 41.1631C186.22 41.88 185.828 42.6232 185.462 43.3926C185.096 44.162 184.783 44.9489 184.521 45.7532C184.26 46.5401 184.112 47.3095 184.077 48.0614C184.077 48.3762 184.164 48.6647 184.338 48.927C184.513 49.1893 184.8 49.3204 185.201 49.3204C186.333 49.3204 187.414 49.0057 188.441 48.3762C189.469 47.7467 190.419 46.9685 191.29 46.0418C192.161 45.0975 192.945 44.092 193.642 43.0254C194.357 41.9412 194.949 40.9532 195.419 40.0614C195.75 39.4669 196.038 38.8286 196.282 38.1467C196.543 37.4647 196.822 36.8352 197.118 36.2581C197.414 35.6811 197.754 35.2002 198.137 34.8155C198.521 34.4308 199 34.2385 199.575 34.2385C200.202 34.2385 200.699 34.4396 201.065 34.8418C201.43 35.2439 201.613 35.7248 201.613 36.2844C201.613 36.5991 201.491 37.0363 201.247 37.5959C201.021 38.1379 200.725 38.7674 200.359 39.4844C200.01 40.1838 199.627 40.9357 199.209 41.7401C198.791 42.5445 198.399 43.3663 198.033 44.2057C197.684 45.0275 197.388 45.8407 197.144 46.645C196.918 47.4319 196.805 48.1663 196.805 48.8483C196.805 49.4778 197.188 49.7926 197.955 49.7926C198.495 49.7926 199.165 49.6352 199.967 49.3204C200.768 49.0057 201.605 48.5685 202.476 48.009C203.364 47.4319 204.244 46.7587 205.115 45.9893C206.004 45.2199 206.788 44.3893 207.468 43.4975L207.729 47.0647Z" fill="#9B8A71"/>
<path d="M210.98 38.5663C212.043 39.1259 212.992 39.7642 213.829 40.4811C214.665 41.198 215.371 41.9587 215.946 42.7631C216.538 43.5499 216.982 44.3543 217.278 45.1762C217.592 45.998 217.749 46.8024 217.749 47.5893C217.749 48.586 217.461 49.4866 216.886 50.2909C216.329 51.0778 215.588 51.751 214.665 52.3106C213.759 52.8527 212.714 53.2636 211.529 53.5434C210.362 53.8407 209.177 53.9893 207.975 53.9893C207.069 53.9893 206.189 53.8844 205.335 53.6745C204.481 53.4822 203.697 53.1762 202.983 52.7565C202.286 52.3368 201.685 51.8035 201.18 51.1565C200.674 50.492 200.317 49.7051 200.108 48.7959C200.073 48.656 200.056 48.5423 200.056 48.4549C200.056 47.9827 200.221 47.5806 200.552 47.2483C200.883 46.8986 201.249 46.7237 201.65 46.7237C201.842 46.7237 202.051 46.7587 202.277 46.8286C202.521 46.8986 202.704 47.056 202.826 47.3008C203.053 47.7204 203.366 48.0964 203.767 48.4286C204.185 48.7609 204.647 49.0494 205.152 49.2942C205.657 49.5215 206.189 49.7051 206.746 49.845C207.321 49.9674 207.879 50.0286 208.419 50.0286C208.976 50.0286 209.508 49.9762 210.013 49.8713C210.536 49.7663 210.989 49.6002 211.372 49.3729C211.773 49.1456 212.086 48.8571 212.313 48.5073C212.539 48.1576 212.653 47.7292 212.653 47.2221C212.653 46.3303 212.452 45.5084 212.052 44.7565C211.651 44.0046 211.128 43.3139 210.483 42.6844C209.856 42.0374 209.133 41.4428 208.314 40.9008C207.513 40.3412 206.711 39.8079 205.91 39.3008C205.823 39.2483 205.692 39.0997 205.518 38.8549C205.344 38.5926 205.257 38.3303 205.257 38.068C205.257 37.8581 205.309 37.692 205.413 37.5696C205.692 37.2024 206.014 36.8265 206.38 36.4418C206.746 36.0571 207.138 35.7073 207.556 35.3926C207.975 35.0603 208.428 34.798 208.915 34.6057C209.403 34.3959 209.909 34.2909 210.431 34.2909C210.815 34.2909 211.172 34.3434 211.503 34.4483C211.834 34.5532 212.113 34.6931 212.339 34.868C212.566 35.0254 212.74 35.209 212.862 35.4188C213.001 35.6112 213.071 35.7948 213.071 35.9696C213.071 36.2144 213.01 36.4505 212.888 36.6778C212.766 36.9051 212.6 37.1237 212.391 37.3336C212.2 37.5434 211.973 37.7532 211.712 37.9631C211.468 38.1729 211.224 38.374 210.98 38.5663Z" fill="#9B8A71"/>
<path d="M229.598 37.8581C229.511 37.8407 229.433 37.8319 229.363 37.8319C229.293 37.8319 229.215 37.8319 229.128 37.8319C228.466 37.8319 227.847 37.9631 227.272 38.2254C226.697 38.4877 226.166 38.8374 225.678 39.2745C225.208 39.6942 224.781 40.1751 224.398 40.7172C224.032 41.2592 223.701 41.8013 223.404 42.3434C223.108 42.868 222.856 43.3751 222.647 43.8647C222.455 44.3543 222.307 44.7653 222.202 45.0975C222.812 44.7827 223.439 44.4243 224.084 44.0221C224.746 43.6199 225.365 43.2352 225.94 42.868C226.515 42.5008 227.011 42.1685 227.429 41.8713C227.865 41.574 228.17 41.3729 228.344 41.268C229.128 40.7784 229.668 40.3237 229.964 39.904C230.26 39.4669 230.409 39.0909 230.409 38.7762C230.409 38.5139 230.321 38.304 230.147 38.1467C229.99 37.9893 229.807 37.8931 229.598 37.8581ZM230.539 34.2385C231.985 34.2385 233.066 34.5882 233.78 35.2877C234.494 35.9871 234.851 36.9576 234.851 38.1991C234.851 38.9336 234.66 39.703 234.277 40.5073C233.893 41.3117 233.231 42.1336 232.29 42.9729C231.349 43.7948 230.086 44.6428 228.501 45.5172C226.933 46.374 224.964 47.2396 222.594 48.1139C222.681 48.621 222.951 49.0232 223.404 49.3204C223.857 49.6002 224.459 49.7401 225.208 49.7401C226.009 49.7401 226.863 49.6265 227.769 49.3991C228.692 49.1543 229.598 48.8483 230.487 48.4811C231.393 48.1139 232.273 47.7204 233.127 47.3008C233.98 46.8636 234.747 46.4527 235.426 46.068C236.123 45.6833 236.698 45.351 237.151 45.0713C237.622 44.7915 237.935 44.6166 238.092 44.5467C238.249 44.4418 238.388 44.3806 238.51 44.3631C238.65 44.3456 238.772 44.3368 238.876 44.3368C239.085 44.3368 239.26 44.3893 239.399 44.4942C239.538 44.5816 239.652 44.6953 239.739 44.8352C239.843 44.9576 239.913 45.0975 239.948 45.2549C239.983 45.3948 240 45.5172 240 45.6221C240 45.7795 239.983 45.9718 239.948 46.1991C239.913 46.409 239.782 46.6538 239.556 46.9336C239.469 47.021 239.172 47.2571 238.667 47.6418C238.179 48.0265 237.543 48.4811 236.759 49.0057C235.975 49.5303 235.061 50.0898 234.015 50.6844C232.987 51.2614 231.89 51.7948 230.722 52.2844C229.572 52.774 228.37 53.1762 227.116 53.4909C225.861 53.8232 224.624 53.9893 223.404 53.9893C222.359 53.9893 221.427 53.7882 220.608 53.386C219.807 52.9838 219.118 52.4418 218.543 51.7598C217.986 51.0778 217.559 50.2909 217.263 49.3991C216.967 48.5073 216.819 47.5718 216.819 46.5926C216.819 45.8407 216.967 45.0188 217.263 44.127C217.559 43.2177 217.986 42.3084 218.543 41.3991C219.101 40.4898 219.78 39.6068 220.582 38.7499C221.401 37.8756 222.316 37.1062 223.326 36.4418C224.337 35.7773 225.443 35.2439 226.645 34.8418C227.865 34.4396 229.163 34.2385 230.539 34.2385Z" fill="#9B8A71"/>
<path d="M37.1556 4.61179C36.5269 5.82906 36.1907 7.16187 36.0867 8.52143C35.7865 9.06537 35.4112 9.56731 34.9449 10.0012C33.5438 11.3029 31.9012 10.3907 31.2652 9.03748C31.2438 8.39033 31.1425 7.74067 30.9615 7.11119C30.7173 6.26635 29.581 6.72353 29.4328 7.4052C29.2349 8.31807 29.3498 9.20884 29.6908 9.98191C29.1602 14.1292 23.3375 16.3155 20.7488 12.4237C20.6532 12.247 20.5478 12.0728 20.4388 11.9023C20.4366 11.8975 20.432 11.8928 20.4297 11.8881C20.3979 11.8383 20.3721 11.7873 20.3391 11.7388C19.919 11.1149 18.917 11.808 19.2045 12.4671C19.3989 12.91 19.6267 13.3155 19.8784 13.686C21.6972 18.1591 16.7606 23.7259 12.7709 21.561C12.2667 20.8439 11.633 20.2444 10.8908 19.853C10.3236 19.5535 9.68464 20.1844 10.0859 20.7297C10.5751 21.3969 11.1256 21.9462 11.7169 22.3814C12.4727 23.7235 12.5385 25.4738 12.1263 27.0454C11.3635 29.9499 7.54199 30.4036 5.07399 30.5871C4.5181 30.628 4.47415 31.4779 4.95677 31.6267C8.03221 32.577 10.9635 34.0847 14.0005 35.186C14.2248 35.2666 14.428 34.9079 14.2083 34.795C11.9817 33.6554 9.48805 32.8562 7.25453 31.7094C10.0863 31.6202 12.8784 30.7491 13.8408 27.628C14.255 26.2858 14.1635 24.7342 13.676 23.3371C15.3738 23.7767 17.2395 23.3444 19.0081 21.8467C21.0521 20.1159 21.887 17.7348 21.6657 15.4181C23.1832 16.3558 25.0972 16.5141 27.1339 15.6853C29.0966 14.8874 30.3527 13.3464 30.9189 11.5685C31.677 12.1616 32.6529 12.4997 33.738 12.4279C34.707 12.3636 35.5304 12.0049 36.2191 11.4594C36.4896 13.1293 37.0738 14.7412 37.89 16.1375C33.2517 17.4287 15.8438 28.2009 16.4815 40.5819C18.5049 28.4591 34.6578 18.2305 39.5893 17.6783C40.3354 17.5943 40.5919 16.6448 40.1931 16.1317C38.8272 14.3773 37.8788 11.86 37.8618 9.40312C38.5917 8.01727 38.9572 6.37827 39.0005 4.97652C39.0345 3.85202 37.6617 3.6279 37.1556 4.61179Z" fill="#9B8A71"/>
<path d="M0.707358 29.1172C-0.0120149 29.7229 -0.135454 30.8056 0.438941 31.4979C1.01218 32.189 2.0913 32.2618 2.81306 31.656C3.53243 31.0504 3.65587 29.9677 3.08148 29.2754C2.50585 28.5843 1.42673 28.5115 0.707358 29.1172Z" fill="#9B8A71"/>
<path d="M9.30117 16.6118C9.04051 16.3656 8.83747 16.1832 8.4943 16.0457C7.39409 15.6029 6.03287 16.7475 6.26862 17.9174C6.34248 18.2819 6.48406 18.5153 6.67709 18.8186C6.89737 19.1644 7.4023 19.3607 7.79937 19.3877C8.23939 19.4164 8.68772 19.2683 9.03331 18.9758C9.38007 18.6844 9.60556 18.2669 9.65613 17.8267C9.70171 17.4283 9.59898 16.8909 9.30117 16.6118Z" fill="#9B8A71"/>
<path d="M16.273 7.43429C15.4713 8.10917 15.3342 9.31389 15.9717 10.083C16.6105 10.8533 17.8124 10.9327 18.613 10.2591C19.4135 9.58541 19.5494 8.37951 18.9131 7.6092C18.2755 6.8401 17.0748 6.75941 16.273 7.43429Z" fill="#9B8A71"/>
<path d="M28.4184 2.73415C27.6818 3.35441 27.5551 4.46104 28.1409 5.16991C28.728 5.87757 29.8321 5.95119 30.5687 5.33093C31.3053 4.71068 31.4308 3.60287 30.8438 2.89521C30.2591 2.18752 29.1561 2.11508 28.4184 2.73415Z" fill="#9B8A71"/>
<path d="M37.8301 0.59836C37.3358 1.0135 37.2512 1.75763 37.6452 2.23375C38.038 2.70869 38.7797 2.75849 39.274 2.34335C39.7683 1.92821 39.8529 1.18408 39.4589 0.707962C39.0661 0.233021 38.3256 0.182008 37.8301 0.59836Z" fill="#9B8A71"/>
</svg>
