<svg width="45" height="33" viewBox="0 0 45 33" fill="none" xmlns="http://www.w3.org/2000/svg">
<g clip-path="url(#clip0_389_19171)">
<path d="M26.1498 17.7015L31.51 10.6619L35.3643 22.7588L23.5879 23.1876L26.1498 17.7015Z" fill="#EE087E"/>
<path d="M18.8492 17.7015L13.4891 10.6619L9.63477 22.7588L21.4108 23.1876L18.8492 17.7015Z" fill="#EE087E"/>
<path d="M37.9949 30.4856L43.0673 14.3535L30.6932 19.9293L22.5009 1.93262L14.3076 19.9293L1.93359 14.3531L7.00592 30.4852C13.8793 30.4856 32.6395 30.4856 37.9949 30.4856Z" fill="#FF3C99"/>
<path d="M40.3301 15.5861C40.6802 16.3599 41.3466 16.9609 42.1655 17.2187L43.0665 14.353L40.3301 15.5861Z" fill="#F82791"/>
<path d="M45.0002 14.3529C45.0002 15.4201 44.1345 16.2854 43.0673 16.2854C42.0001 16.2854 41.1348 15.4201 41.1348 14.3529C41.1348 13.2852 42.0001 12.4199 43.0673 12.4199C44.1345 12.4199 45.0002 13.2856 45.0002 14.3529Z" fill="#FF3C99"/>
<path d="M29.916 12.7568C30.3594 13.0953 30.9115 13.299 31.5108 13.299C31.7897 13.299 32.0586 13.2547 32.3113 13.174L31.5108 10.6619L29.916 12.7568Z" fill="#E2046C"/>
<path d="M33.0765 10.662C33.0765 11.5265 32.3758 12.2276 31.5109 12.2276C30.6465 12.2276 29.9453 11.5269 29.9453 10.662C29.9453 9.79761 30.6461 9.09644 31.5109 9.09644C32.3754 9.09644 33.0765 9.79761 33.0765 10.662Z" fill="#EE087E"/>
<path d="M13.4282 13.2991C14.0451 13.2991 14.6122 13.0842 15.0621 12.7281L13.4892 10.6624L12.6836 13.1908C12.9199 13.26 13.1695 13.2991 13.4282 13.2991Z" fill="#E2046C"/>
<path d="M14.9945 10.662C14.9945 11.5265 14.2938 12.2276 13.4289 12.2276C12.5645 12.2276 11.8633 11.5269 11.8633 10.662C11.8633 9.79761 12.564 9.09644 13.4289 9.09644C14.2938 9.09644 14.9945 9.79761 14.9945 10.662Z" fill="#EE087E"/>
<path d="M24.4319 1.93252C24.4319 2.99974 23.5666 3.86504 22.4994 3.86504C21.4317 3.86504 20.5664 2.99974 20.5664 1.93252C20.5664 0.865294 21.4317 0 22.4994 0C23.5666 0 24.4319 0.865294 24.4319 1.93252Z" fill="#FF3C99"/>
<path d="M1.93359 14.353L2.83455 17.2187C3.65344 16.9609 4.31981 16.3599 4.66997 15.5861L1.93359 14.353Z" fill="#F82791"/>
<path d="M3.86547 14.3529C3.86547 15.4201 3.00017 16.2854 1.93252 16.2854C0.865294 16.2858 0 15.4201 0 14.3529C0 13.2852 0.865294 12.4199 1.93295 12.4199C3.00017 12.4199 3.86547 13.2856 3.86547 14.3529Z" fill="#FF3C99"/>
<path d="M37.8335 32.2312H7.16671C6.74695 32.2312 6.40625 31.8909 6.40625 31.4711V31.2456C6.40625 30.8258 6.74695 30.4851 7.16671 30.4851H37.8335C38.2537 30.4851 38.594 30.8258 38.594 31.2456V31.4711C38.594 31.8913 38.2537 32.2312 37.8335 32.2312Z" fill="#EE087E"/>
<path d="M21.4433 6.54224L14.9094 21.1573L12.8145 20.6391L17.1293 23.4262L21.4433 6.54224Z" fill="#FFB3DD"/>
<path d="M41.7847 16.2859L37.2464 29.5626H34.2832L41.7847 16.2859Z" fill="#EE087E"/>
<path d="M21.6884 1.17425C21.5265 1.42731 21.3031 1.57339 21.1901 1.50078C21.0762 1.42817 21.1157 1.16437 21.2777 0.911316C21.4397 0.658258 21.6627 0.512181 21.7765 0.58479C21.8895 0.657399 21.8504 0.921197 21.6884 1.17425Z" fill="#FFC7E4"/>
<path d="M42.3486 13.5309C42.1867 13.784 41.9632 13.9301 41.8502 13.8575C41.7364 13.7844 41.7759 13.5211 41.9375 13.268C42.0994 13.0149 42.3228 12.8689 42.4358 12.9415C42.5497 13.0141 42.5106 13.2779 42.3486 13.5309Z" fill="#FFC7E4"/>
<path d="M30.8666 10.1808C30.7046 10.4338 30.4812 10.5799 30.3678 10.5073C30.2539 10.4347 30.2935 10.1709 30.4554 9.91782C30.6174 9.66476 30.8404 9.51825 30.9538 9.59129C31.0677 9.66433 31.0282 9.92813 30.8666 10.1808Z" fill="#FFC7E4"/>
<path d="M12.6631 10.1808C12.5011 10.4338 12.2777 10.5799 12.1647 10.5073C12.0508 10.4347 12.0903 10.1709 12.2523 9.91782C12.4143 9.66476 12.6377 9.51825 12.7507 9.59129C12.8641 9.66433 12.8246 9.92813 12.6631 10.1808Z" fill="#FFC7E4"/>
<path d="M1.18854 14.0079C1.02657 14.261 0.803158 14.4071 0.689733 14.3345C0.576308 14.2614 0.615835 13.9981 0.777809 13.7446C0.939783 13.4915 1.16277 13.3454 1.27619 13.4185C1.38962 13.4907 1.35009 13.7549 1.18854 14.0079Z" fill="#FFC7E4"/>
</g>
<defs>
<clipPath id="clip0_389_19171">
<rect width="45" height="32.2311" fill="white"/>
</clipPath>
</defs>
</svg>
