<svg width="110" height="110" viewBox="0 0 110 110" fill="none" xmlns="http://www.w3.org/2000/svg">
<circle cx="55" cy="55" r="53" stroke="#E71A57" stroke-width="4"/>
<path d="M46.184 45.524H40.724V43.396H37.028V45.524H31.54V48.156H46.184V45.524ZM36.076 52.608C36.076 51.656 37.14 51.18 38.876 51.18C40.612 51.18 41.648 51.656 41.648 52.608C41.648 53.56 40.612 54.064 38.876 54.064C37.14 54.064 36.076 53.56 36.076 52.608ZM46.828 57.172C44.868 57.396 42.824 57.564 40.724 57.648V56.332C43.468 55.912 45.148 54.568 45.148 52.608C45.148 50.256 42.684 48.8 38.876 48.8C35.068 48.8 32.576 50.256 32.576 52.608C32.576 54.568 34.284 55.912 37.028 56.332V57.788C34.844 57.844 32.744 57.844 30.896 57.844L31.288 60.672C35.824 60.672 41.704 60.616 47.108 59.664L46.828 57.172ZM34.172 65.068H47.948V69.436H51.644V62.212H34.172V65.068ZM54.892 51.012H51.644V43.62H47.948V61.204H51.644V54.036H54.892V51.012ZM70.3618 49.836V52.832H74.2258V58.964H77.9218V43.62H74.2258V49.836H70.3618ZM71.9018 55.38C67.9818 54.092 66.1898 51.068 66.0778 48.128H71.0898V45.16H57.2298V48.128H62.2978C62.1858 51.348 60.3098 54.624 56.2218 56.052L58.0978 58.964C61.0938 57.956 63.1378 55.856 64.2578 53.252C65.3778 55.52 67.3098 57.34 70.1098 58.264L71.9018 55.38ZM69.2138 66.636C65.8258 66.636 64.0618 65.936 64.0618 64.48C64.0618 63.024 65.8258 62.324 69.2138 62.324C72.5738 62.324 74.3378 63.024 74.3378 64.48C74.3378 65.936 72.5738 66.636 69.2138 66.636ZM69.2138 59.524C63.7258 59.524 60.3658 61.344 60.3658 64.48C60.3658 67.616 63.7258 69.436 69.2138 69.436C74.6738 69.436 78.0338 67.616 78.0338 64.48C78.0338 61.344 74.6738 59.524 69.2138 59.524Z" fill="#E71A57"/>
</svg>
