<svg width="41" height="42" viewBox="0 0 41 42" fill="none" xmlns="http://www.w3.org/2000/svg">
<path d="M21.111 20.9762C17.1478 16.942 9.90473 16.1836 9.90473 16.1836C9.73483 16.3528 9.55713 16.5482 9.37454 16.767C3.27782 27.5598 0.349556 37.8364 0.0175754 39.0391C0.0117169 39.078 0.00585863 39.1169 0.000976562 39.1558V39.1704C0.000976562 39.1704 0.0986174 39.851 1.12873 40.8778C2.15885 41.9046 2.84234 42.0008 2.84331 42.0008C2.84429 42.0008 13.3827 39.0284 25.4502 32.5693C25.625 32.4195 25.7841 32.2776 25.9247 32.1336C25.9228 32.1356 25.1573 24.9219 21.111 20.9762Z" fill="#FACD35"/>
<path d="M7.21258 20.8203C6.47343 22.2856 5.7958 23.7198 5.17578 25.0986C5.77139 29.825 11.6201 35.976 14.8579 37.6182C15.8343 37.204 16.8504 36.7594 17.9063 36.2842C12.1357 33.6482 6.65114 25.8939 7.21258 20.8203Z" fill="#F41B60"/>
<path d="M3.10919 30.0059C2.66688 31.1289 2.27436 32.179 1.92871 33.1397C2.66688 35.5705 4.95559 38.5847 7.80476 40.3689C8.63081 40.0772 9.54278 39.7398 10.528 39.3626C7.4679 37.7398 3.69407 33.302 3.10919 30.0059Z" fill="#F41B60"/>
<g style="mix-blend-mode:multiply">
<path d="M25.9221 32.136C25.6314 29.9237 25.0483 27.7594 24.188 25.6992C22.9187 26.8213 23.9146 29.4855 22.4715 30.3839C22.1785 30.5997 23.2389 32.9363 22.8786 32.8585C20.5059 32.3412 18.1469 33.4107 16.8346 34.2246C10.3464 38.249 3.46559 41.3479 1.98145 41.5939C2.51652 41.9536 2.83971 42.0003 2.84069 42.0003C2.84166 42.0003 13.3801 39.0279 25.4476 32.5687C25.6223 32.4219 25.7815 32.276 25.9221 32.136Z" fill="#F9D2AC"/>
</g>
<path d="M25.9574 32.1009C28.0024 30.0645 26.0741 24.8426 21.6505 20.4375C17.2269 16.0324 11.9831 14.1122 9.93812 16.1487C7.89314 18.1851 9.8214 23.407 14.245 27.8121C18.6686 32.2172 23.9124 34.1374 25.9574 32.1009Z" fill="#FFDE52"/>
<path d="M25.4576 31.378C27.2509 29.5922 25.3928 24.8465 21.3074 20.7782C17.222 16.7099 12.4564 14.8596 10.6631 16.6454C8.86978 18.4312 10.7279 23.1769 14.8133 27.2452C18.8986 31.3135 23.6643 33.1638 25.4576 31.378Z" fill="url(#paint0_radial_1080_16045)"/>
<path d="M0.521057 37.332C0.250646 38.2071 0.0846886 38.7954 0.0183058 39.0355C0.0124485 39.0744 0.005615 39.1153 0.000733917 39.1551V39.1697C0.000733917 39.1697 -0.061744 39.9204 0.966212 40.9442C1.99417 41.9681 2.84152 42.0002 2.8425 42.0002C2.84348 42.0002 3.24763 41.8854 3.98955 41.654C2.33975 40.5465 1.02869 39.0054 0.521057 37.332Z" fill="#F41B60"/>
<g style="mix-blend-mode:screen" opacity="0.5">
<path d="M3.90196 34.7597C4.78073 33.204 5.68294 31.6706 6.63006 30.1596C7.31355 29.0764 8.04 27.5586 8.68052 26.4648C9.15506 25.6558 10.3482 23.7267 9.83074 22.9566C9.12577 21.9084 7.78613 24.6533 7.38971 25.3242C6.52461 26.7973 5.7796 28.3384 4.94868 29.829C4.14509 31.271 3.38642 32.7392 2.68828 34.2337C2.32017 35.0261 1.55857 36.4603 1.22757 37.2625C1.09673 37.5765 0.776465 38.2144 0.686635 38.7316C0.675886 38.7975 0.686842 38.8651 0.717867 38.9243C0.748891 38.9835 0.798316 39.0311 0.858754 39.06C0.919192 39.0889 0.987396 39.0975 1.05317 39.0846C1.11894 39.0717 1.17876 39.0379 1.22366 38.9883C1.98038 38.1541 3.40009 35.6455 3.90196 34.7597Z" fill="#F9D2AC"/>
</g>
<path d="M14.3827 21.5465C16.5718 19.7467 19.2941 17.3062 19.8028 14.3415C19.9981 13.1747 19.588 11.9224 18.6311 11.1834C17.9017 10.6195 16.9995 10.4571 16.0983 10.5261C14.9324 10.6156 13.8105 11.6355 12.6427 11.3497C12.1096 11.2204 11.7376 10.5378 11.8723 10.0108C11.9612 9.66269 12.1955 9.34863 12.4406 9.09096C12.9581 8.54646 13.6582 8.20323 14.3446 7.91834C15.6484 7.38357 17.0315 7.0656 18.4387 6.97712C18.8293 6.9499 18.4387 5.33875 17.8851 5.37765C16.6542 5.45579 15.4407 5.70788 14.2812 6.12634C13.1954 6.52499 11.9612 7.08116 11.3461 8.11669C10.8403 8.96845 10.8725 9.98842 11.2123 10.8956C11.4867 11.6278 11.9407 12.1188 12.5588 12.3628C12.879 12.4892 13.378 12.2889 13.7832 12.2821C14.8817 12.2656 15.8756 11.8514 16.9721 11.8213C17.5648 11.8047 18.7561 12.2938 19.0041 12.9171C19.1652 13.3245 18.5754 14.4436 18.3342 14.887C17.2241 16.9367 15.4558 18.5984 13.6729 20.0637C13.3174 20.3554 13.956 21.8965 14.3808 21.5465H14.3827Z" fill="#F41B60"/>
<path d="M18.5866 11.2839C17.8902 10.7148 16.9967 10.4419 16.0996 10.5245C14.9338 10.6139 13.6586 11.1682 12.4869 10.8833C12.0739 10.786 11.8522 10.6285 11.8366 10.3184C11.7097 11.0962 11.9245 11.8819 12.5611 12.3602C12.908 12.492 13.2777 12.5541 13.6488 12.543C14.7483 12.5265 15.797 12.1395 16.8974 12.1094C17.49 12.0938 18.7526 12.2932 19.0054 12.9164C19.0255 12.9732 19.0347 13.0332 19.0328 13.0934C19.1519 12.615 19.231 11.8099 18.5866 11.2839Z" fill="#AF0068"/>
<path d="M38.1621 12.3156C37.9668 11.9568 36.4602 12.4206 36.4671 12.4332C36.9309 13.2928 36.7883 14.6073 35.7953 15.0449C35.7767 15.0322 35.6283 15.0361 35.6 15.0177C35.4867 14.9379 35.3901 14.9 35.271 14.8232C35.0601 14.6812 34.7339 14.5315 34.5523 14.3575C34.1686 13.9821 34.029 13.5037 33.5534 13.2383C32.8416 12.8406 31.9189 12.8494 31.1417 13.0205C30.1702 13.2344 29.7269 13.9267 29.5365 14.8679C29.4388 15.3706 29.4388 15.8879 29.3285 16.3906C29.2795 16.6423 29.2036 16.8881 29.102 17.1237C29.0252 17.2889 28.9267 17.4433 28.8091 17.5827C28.7809 17.6158 28.7499 17.6464 28.7163 17.6741C28.603 17.6147 28.3472 17.6614 28.3052 17.6323C28.1275 17.5097 27.8961 17.4475 27.735 17.3046C27.3962 17.0051 27.3025 16.4985 26.9002 16.2807C26.1825 15.8918 25.3379 15.8578 24.547 15.989C23.5706 16.1456 23.2435 16.6648 23.1566 17.6303C23.1025 18.2528 23.1327 18.8798 23.2464 19.4943C23.3372 19.994 23.4954 20.5006 23.4671 21.014C23.4407 21.4895 23.1254 22.2693 22.561 22.3373C22.0162 22.4015 20.9987 21.7928 20.5691 21.5099C20.3182 21.3446 20.0506 21.4379 19.7724 21.4729C19.7011 21.4817 18.8936 21.4671 19.0479 21.5653C19.996 22.1915 20.9255 22.6903 22.0865 22.7039C22.9926 22.7146 24.215 22.6067 24.8204 21.8385C25.5186 20.9489 24.9483 19.75 24.8546 18.7582C24.7983 18.1746 24.8196 17.5861 24.9181 17.008C24.9567 16.7929 25.0607 16.5947 25.2159 16.4402C25.4397 16.4249 25.6614 16.4921 25.8388 16.6288C26.6365 17.253 27.1218 17.9949 28.2027 18.0688C28.8432 18.1116 29.5004 18.1661 30.0579 17.8471C30.3185 17.6987 30.5348 17.4839 30.6847 17.2248C31.335 16.0969 30.88 14.5879 31.7276 13.5504C31.7773 13.501 31.8327 13.4576 31.8926 13.4211C31.9053 13.4279 32.0166 13.4211 32.0244 13.4211C32.2109 13.5776 32.494 13.704 32.6776 13.8693C32.9159 14.0813 32.9656 14.3224 33.1932 14.55C33.4378 14.8066 33.7231 15.0214 34.0378 15.1859C35.8861 16.0726 39.5174 14.8251 38.1621 12.3156Z" fill="#48B5FF"/>
<path d="M20.6826 21.3591C20.4317 21.1928 19.9114 21.2871 19.6331 21.3221C19.5619 21.3309 18.9049 21.4573 19.0542 21.5555C19.9406 22.1389 21.5719 22.7145 22.5052 22.3285C21.9546 22.3362 21.0945 21.6303 20.6826 21.3591Z" fill="#216BD6"/>
<path d="M35.3425 14.7909C35.1359 14.6404 34.9426 14.4725 34.7646 14.2892C34.381 13.9139 34.0315 13.4997 33.5561 13.2342C33.4946 13.2002 33.4321 13.1701 33.3676 13.137C32.8678 13.0894 32.3006 13.0962 31.8975 13.4073C32.0927 13.4851 32.3446 13.7087 32.5154 13.8614C33.0172 14.3096 33.8548 15.6728 35.7955 15.0398C35.6379 14.9695 35.4864 14.8862 35.3425 14.7909Z" fill="#216BD6"/>
<path d="M28.7224 17.6664C28.6092 17.6071 28.4998 17.5516 28.4578 17.5225C28.2824 17.3961 28.1142 17.2601 27.9541 17.1151C27.6154 16.8156 27.3088 16.4908 26.9066 16.273C26.8402 16.2361 26.7709 16.2059 26.7026 16.1758C26.192 16.0601 25.6405 16.1009 25.2217 16.4325C25.3925 16.5221 25.554 16.6283 25.7039 16.7495C26.5015 17.3737 27.0599 18.0942 28.1445 18.1671C28.7849 18.2109 29.5112 18.1584 30.0647 17.8365C29.4419 18.0495 28.7361 17.6557 28.7224 17.6664Z" fill="#216BD6"/>
<path d="M34.095 29.1031C32.3619 27.5299 29.8115 26.8512 27.5404 26.6081C23.8422 26.2134 20.1217 27.1172 17.0215 29.1634C17.0196 29.1656 17.0173 29.1672 17.0146 29.1683C17.3632 29.4337 17.7128 29.6846 18.0604 29.916C20.8957 28.4305 24.1033 27.7972 27.2933 28.0929C29.42 28.2961 31.6433 29.1625 33.6908 30.5996C34.1155 30.899 34.3382 29.4221 34.095 29.1031Z" fill="#F41B60"/>
<path d="M31.793 22.1529L31.4552 20.7323C31.4401 20.6745 31.4443 20.6133 31.4672 20.558C31.4901 20.5028 31.5304 20.4564 31.5821 20.426C32.1239 20.1217 33.393 19.8942 34.1027 19.9982C34.1679 20.0071 34.2302 20.0309 34.2847 20.0677C34.3392 20.1044 34.3845 20.1532 34.417 20.2102C34.6403 20.6732 34.7532 21.1813 34.747 21.6949C34.7426 21.7349 34.7229 21.7716 34.692 21.7975C34.6611 21.8234 34.6213 21.8365 34.581 21.834C33.8499 21.8486 32.3152 22.1208 32.0253 22.2618C32.0032 22.2727 31.9789 22.2785 31.9542 22.2787C31.9295 22.279 31.9051 22.2737 31.8828 22.2632C31.8604 22.2527 31.8408 22.2374 31.8252 22.2183C31.8097 22.1992 31.7986 22.1768 31.793 22.1529Z" fill="#F41B60"/>
<path d="M30.0741 36.3151L28.7318 34.9092C28.6772 34.8518 28.6421 34.7788 28.6314 34.7004C28.6207 34.6221 28.635 34.5424 28.6722 34.4726C28.8841 34.0739 29.9345 32.771 30.8199 32.4181C30.9007 32.3847 30.9881 32.3704 31.0753 32.3763C31.1625 32.3822 31.2472 32.4081 31.3227 32.4521C31.8049 32.738 32.457 33.4516 32.6982 33.9359C32.7198 33.9846 32.7218 34.0399 32.7036 34.09C32.6854 34.1402 32.6485 34.1815 32.6005 34.2052C31.7717 34.7098 30.653 35.9291 30.4148 36.285C30.3967 36.3123 30.3726 36.3352 30.3444 36.352C30.3161 36.3687 30.2845 36.3789 30.2517 36.3818C30.219 36.3847 30.186 36.3802 30.1553 36.3687C30.1245 36.3571 30.0968 36.3388 30.0741 36.3151Z" fill="#86D61E"/>
<path d="M27.8302 4.83878L28.3379 6.17184C28.3808 6.28393 28.3887 6.40628 28.3607 6.52292C28.3326 6.63955 28.2698 6.74505 28.1806 6.82561C28.0914 6.90616 27.9798 6.95804 27.8605 6.97446C27.7412 6.99087 27.6197 6.97107 27.5119 6.91762L26.2425 6.29047C26.2097 6.27477 26.1731 6.26854 26.1368 6.27249C26.1006 6.27644 26.0662 6.29042 26.0375 6.31283L24.9078 7.21807C24.8138 7.29336 24.6991 7.3386 24.5788 7.34785C24.4585 7.3571 24.3382 7.32992 24.2337 7.26989C24.1291 7.20986 24.0453 7.11978 23.9931 7.01145C23.9409 6.90313 23.9228 6.78162 23.9411 6.66287L24.1589 5.2598C24.1649 5.22248 24.16 5.18422 24.1445 5.14968C24.1291 5.11514 24.1039 5.08583 24.072 5.06534L22.8563 4.28747C22.7545 4.22265 22.6747 4.12861 22.6275 4.01775C22.5803 3.90689 22.568 3.7844 22.5921 3.66642C22.6162 3.54843 22.6756 3.44048 22.7625 3.35678C22.8494 3.27307 22.9597 3.21754 23.079 3.1975L24.5055 2.96511C24.5418 2.95845 24.5755 2.94167 24.6026 2.91672C24.6298 2.89176 24.6493 2.85965 24.6588 2.82412L25.0093 1.44828C25.0389 1.33164 25.1032 1.22664 25.1938 1.14707C25.2844 1.0675 25.397 1.01709 25.5169 1.00247C25.6368 0.987845 25.7584 1.00969 25.8656 1.06514C25.9728 1.12059 26.0606 1.20704 26.1176 1.31313L26.8011 2.58396C26.819 2.61512 26.8454 2.6407 26.8771 2.65786C26.9088 2.67503 26.9447 2.6831 26.9807 2.68119L28.3975 2.59854C28.5175 2.59165 28.6368 2.6209 28.7399 2.6825C28.843 2.7441 28.9251 2.83518 28.9754 2.94388C29.0258 3.05259 29.0421 3.17387 29.0223 3.29195C29.0025 3.41003 28.9474 3.51942 28.8642 3.60587L27.8732 4.63557C27.8474 4.66194 27.8298 4.69502 27.8221 4.73099C27.8145 4.76695 27.8173 4.80433 27.8302 4.83878Z" fill="#FFE33E"/>
<path d="M39.5733 25.4988L39.2638 26.4186C39.2378 26.4958 39.1891 26.5634 39.124 26.6127C39.0589 26.6619 38.9804 26.6905 38.8988 26.6947C38.8172 26.6989 38.7362 26.6785 38.6663 26.6362C38.5965 26.5939 38.5411 26.5317 38.5072 26.4575L38.1089 25.5824C38.0988 25.5599 38.0824 25.5408 38.0616 25.5273C38.0408 25.5139 38.0166 25.5067 37.9918 25.5066L37.0029 25.4988C36.9208 25.4983 36.8408 25.473 36.7734 25.4263C36.7059 25.3796 36.6543 25.3137 36.6251 25.2373C36.596 25.1608 36.5907 25.0774 36.6101 24.9979C36.6294 24.9184 36.6724 24.8466 36.7335 24.7919L37.4549 24.1463C37.4735 24.1294 37.4869 24.1074 37.4933 24.0831C37.4997 24.0588 37.4989 24.0331 37.491 24.0092L37.1854 23.0806C37.1601 23.0031 37.1589 22.9198 37.1818 22.8415C37.2048 22.7633 37.2509 22.6937 37.3141 22.6419C37.3774 22.5902 37.4548 22.5586 37.5363 22.5514C37.6179 22.5441 37.6997 22.5615 37.7712 22.6013L38.6234 23.0875C38.6455 23.0999 38.6707 23.1057 38.696 23.1042C38.7213 23.1026 38.7456 23.0938 38.7659 23.0787L39.5469 22.505C39.6129 22.4565 39.692 22.429 39.7739 22.426C39.8558 22.4231 39.9368 22.4448 40.0061 22.4884C40.0754 22.532 40.1299 22.5955 40.1624 22.6704C40.1949 22.7454 40.2039 22.8284 40.1883 22.9085L39.9989 23.8711C39.9943 23.8955 39.9967 23.9207 40.0059 23.9437C40.015 23.9668 40.0305 23.9868 40.0506 24.0014L40.8316 24.5644C40.898 24.6122 40.9484 24.6787 40.9761 24.7554C41.0039 24.8321 41.0079 24.9154 40.9874 24.9944C40.967 25.0733 40.9231 25.1443 40.8615 25.1981C40.7999 25.2518 40.7235 25.2858 40.6422 25.2956L39.6748 25.4133C39.6517 25.417 39.63 25.4269 39.6121 25.442C39.5942 25.4571 39.5808 25.4767 39.5733 25.4988Z" fill="#FFE33E"/>
<path d="M26.3338 11.7975C26.7659 11.412 26.8338 10.7856 26.4855 10.3985C26.1372 10.0114 25.5045 10.0101 25.0724 10.3957C24.6403 10.7812 24.5724 11.4076 24.9207 11.7947C25.269 12.1818 25.9017 12.1831 26.3338 11.7975Z" fill="#86D61E"/>
<path d="M9.2717 7.49469C9.7016 7.20091 9.78446 6.57728 9.45677 6.10177C9.12908 5.62627 8.51494 5.47896 8.08504 5.77274C7.65514 6.06653 7.57228 6.69016 7.89997 7.16566C8.22766 7.64117 8.8418 7.78848 9.2717 7.49469Z" fill="#FFE33E"/>
<path d="M39.3056 32.4698C39.8095 32.0699 39.8565 31.294 39.4106 30.7367C38.9646 30.1795 38.1946 30.0519 37.6907 30.4518C37.1868 30.8516 37.1398 31.6275 37.5857 32.1848C38.0317 32.742 38.8016 32.8696 39.3056 32.4698Z" fill="#48B5FF"/>
<path d="M8.89778 13.0743L7.46371 13.6577C7.39224 13.6877 7.31307 13.6945 7.23751 13.677C7.16195 13.6595 7.09386 13.6187 7.04296 13.5604C6.7501 13.2318 6.21611 12.5064 6.19561 11.5818C6.19282 11.4969 6.20978 11.4125 6.24518 11.3353C6.28057 11.258 6.33344 11.1899 6.39964 11.1364C6.84041 10.8048 7.36558 10.6027 7.9157 10.553C7.9678 10.5502 8.01899 10.5674 8.05875 10.6011C8.09851 10.6347 8.12383 10.6822 8.12949 10.7339C8.27466 11.459 8.56591 12.1474 8.98564 12.7573C9.00415 12.7829 9.01666 12.8123 9.02225 12.8434C9.02784 12.8744 9.02636 12.9063 9.01793 12.9367C9.0095 12.9672 8.99433 12.9953 8.97354 13.0191C8.95274 13.0429 8.92685 13.0618 8.89778 13.0743Z" fill="#86D61E"/>
<path d="M35.5075 5.59266L36.2768 7.6083C36.3261 7.71613 36.3421 7.83616 36.3226 7.95307C36.3031 8.06997 36.2491 8.17844 36.1674 8.26462C35.7135 8.69536 34.7031 9.46836 33.3823 9.40905C33.2529 9.40072 33.1271 9.36344 33.0142 9.29997C32.9013 9.23651 32.8042 9.14849 32.7302 9.04248C32.2147 8.33365 32.0605 7.73567 31.9492 6.89753C31.9429 6.86027 31.9443 6.82211 31.9533 6.78541C31.9624 6.74872 31.9789 6.71426 32.0019 6.68418C32.0249 6.6541 32.0538 6.62904 32.0869 6.61055C32.12 6.59205 32.1565 6.58052 32.1942 6.57666C33.222 6.42135 34.1981 6.02584 35.0428 5.42251C35.1981 5.30583 35.4226 5.38847 35.5075 5.59266Z" fill="#FFE33E"/>
<path d="M36.2055 4.91379L35.3347 6.17781C35.2921 6.23976 35.2309 6.28673 35.1599 6.31205C35.089 6.33736 35.0118 6.33972 34.9393 6.3188C34.5264 6.20212 33.7074 5.88514 33.2036 5.13839C33.1568 5.07001 33.1264 4.99185 33.1148 4.90992C33.1031 4.82799 33.1104 4.74449 33.1363 4.66584C33.3213 4.15148 33.6457 3.69817 34.0734 3.35612C34.1144 3.32617 34.1654 3.31328 34.2157 3.32018C34.266 3.32708 34.3116 3.35322 34.3429 3.39307C34.8435 3.91229 35.4446 4.32508 36.1098 4.60653C36.1388 4.61769 36.1649 4.63523 36.1861 4.65785C36.2073 4.68046 36.2231 4.70756 36.2323 4.73711C36.2415 4.76666 36.2439 4.79791 36.2392 4.8285C36.2346 4.8591 36.2231 4.88825 36.2055 4.91379Z" fill="#F41B60"/>
<defs>
<radialGradient id="paint0_radial_1080_16045" cx="0" cy="0" r="1" gradientUnits="userSpaceOnUse" gradientTransform="translate(12.8 29.2501) rotate(44.8799) scale(15.9173 15.9172)">
<stop offset="0.47" stop-color="#F0AA2E"/>
<stop offset="1" stop-color="#E07A1D"/>
</radialGradient>
</defs>
</svg>
